<svg width="112" height="112" viewBox="0 0 112 112" fill="none" xmlns="http://www.w3.org/2000/svg">
<g clip-path="url(#clip0)">
<path d="M-0.365784 109.933L27.1182 87.3V40.9942L-0.365784 63.6284V109.933ZM55.3124 63.1719L28.3803 40.9942V87.3L55.3124 109.479V63.1719ZM64.192 19.0978C64.192 23.8766 60.3198 27.7496 55.541 27.7496C50.763 27.7496 46.89 23.8758 46.89 19.0978C46.89 14.3198 50.763 10.446 55.541 10.446C60.319 10.4468 64.192 14.3206 64.192 19.0978ZM70.8462 27.7496C72.3196 25.2033 73.1662 22.2511 73.1662 19.0978C73.1662 9.54259 65.4202 1.79657 55.8658 1.79657C46.3098 1.79657 38.5638 9.54259 38.5638 19.0978C38.5638 23.3003 40.0616 27.1505 42.5535 30.1485L55.8808 49.3756L69.4004 29.8686C69.8868 29.26 70.3322 28.6191 70.7335 27.9467L70.8707 27.7496H70.8462ZM56.606 109.323L83.118 87.4908V41.1865L56.606 63.019V109.323ZM112.096 109.933V63.6284L84.2847 40.7277V87.032L112.096 109.933Z" fill="#3F3D56"/>
</g>
<defs>
<clipPath id="clip0">
<rect width="111.73" height="111.73" fill="white"/>
</clipPath>
</defs>
</svg>
