<svg width="110" height="110" viewBox="0 0 110 110" fill="none" xmlns="http://www.w3.org/2000/svg">
<path d="M98.1292 53.075L56.9021 11.8479C55.2292 10.1979 52.9375 9.16669 50.4167 9.16669H18.3333C13.2688 9.16669 9.16667 13.2688 9.16667 18.3334V50.4167C9.16667 52.9604 10.1979 55.2521 11.8708 56.9021L53.1208 98.1521C54.7708 99.8021 57.0625 100.833 59.5833 100.833C62.1042 100.833 64.4188 99.8021 66.0688 98.1521L98.1521 66.0688C99.8021 64.3959 100.833 62.1042 100.833 59.5834C100.833 57.0396 99.8021 54.7479 98.1292 53.075ZM25.2083 32.0834C21.4042 32.0834 18.3333 29.0125 18.3333 25.2084C18.3333 21.4042 21.4042 18.3334 25.2083 18.3334C29.0125 18.3334 32.0833 21.4042 32.0833 25.2084C32.0833 29.0125 29.0125 32.0834 25.2083 32.0834Z" fill="#3F3D56"/>
</svg>
