<svg width="112" height="112" viewBox="0 0 112 112" fill="none" xmlns="http://www.w3.org/2000/svg">
<g clip-path="url(#clip0)">
<path d="M72.1809 55.8697L103.583 82.7877L100.724 85.6469L69.0828 58.5256L55.8808 69.8419L42.8333 58.6572L11.3534 85.643L8.35225 82.6418L39.5807 55.8689L8.18986 28.9573L11.0491 26.0981L55.7279 64.4001L65.8317 55.7381L65.8041 55.7129H65.8617L100.413 26.0918L103.417 29.0961L72.1809 55.8697ZM111.171 85.6501V26.0934C111.171 23.7379 109.267 21.8278 106.917 21.8278C106.901 21.8278 106.885 21.8301 106.868 21.8309C106.852 21.8301 106.835 21.8278 106.819 21.8278C106.556 21.8278 106.302 21.8553 106.05 21.905V21.8419H9.35499V21.8356H4.94514C4.90099 21.8333 4.85763 21.8278 4.8127 21.8278C4.79693 21.8278 4.78038 21.8301 4.76382 21.8309C4.74648 21.8301 4.7315 21.8278 4.71416 21.8278C2.41857 21.8278 0.558929 23.6929 0.558929 25.9932C0.558929 26.0098 0.561294 26.0263 0.561294 26.0429C0.561294 26.0595 0.558929 26.0768 0.558929 26.0934V85.6501C0.558929 87.9985 2.46351 89.9038 4.8127 89.9038H106.917C109.267 89.903 111.171 87.9985 111.171 85.6501Z" fill="#3F3D56"/>
</g>
<defs>
<clipPath id="clip0">
<rect width="111.73" height="111.73" fill="white"/>
</clipPath>
</defs>
</svg>
