<svg width="112" height="112" viewBox="0 0 112 112" fill="none" xmlns="http://www.w3.org/2000/svg">
<path d="M85.3158 93.1998H33.1133V8.584H85.3158V93.1998ZM55.1524 101.792C55.1524 99.4654 57.0207 97.5781 59.3257 97.5781C61.6316 97.5781 63.4991 99.4654 63.4991 101.792C63.4991 104.117 61.6316 106.008 59.3257 106.008C57.0207 106.004 55.1524 104.117 55.1524 101.792ZM88.8183 105.616H88.8254V4.21041V4.20962V4.18913H88.8238C88.8128 1.87383 86.9342 0 84.615 0C84.5984 0 84.585 0.00157664 84.5701 0.00157664V0H75.1126H47.5214H33.8142C31.4981 0.00157664 29.6211 1.87541 29.6085 4.18913H29.6077V105.615H29.614C29.6124 105.659 29.6077 105.703 29.6077 105.748C29.6077 108.017 31.5146 109.857 33.8678 109.857C33.9024 109.857 33.9363 109.852 33.971 109.851V109.857H84.6725C86.9618 109.857 88.8246 108.018 88.8246 105.748C88.8254 105.703 88.8199 105.659 88.8183 105.616Z" fill="#3F3D56"/>
</svg>
