<svg width="29" height="29" viewBox="0 0 29 29" fill="none" xmlns="http://www.w3.org/2000/svg">
<path fill-rule="evenodd" clip-rule="evenodd" d="M20.5 11.5C20.5 16.4706 16.4706 20.5 11.5 20.5C6.52944 20.5 2.5 16.4706 2.5 11.5C2.5 6.52944 6.52944 2.5 11.5 2.5C16.4706 2.5 20.5 6.52944 20.5 11.5ZM18.502 20.6233C16.5628 22.1139 14.1349 23 11.5 23C5.14873 23 0 17.8513 0 11.5C0 5.14873 5.14873 0 11.5 0C17.8513 0 23 5.14873 23 11.5C23 14.1349 22.1139 16.5628 20.6233 18.502L28.2739 26.1525C28.8597 26.7383 28.8597 27.6881 28.2739 28.2739C27.6881 28.8596 26.7383 28.8596 26.1526 28.2739L18.502 20.6233Z" fill="black"/>
</svg>
