<svg width="110" height="110" viewBox="0 0 110 110" fill="none" xmlns="http://www.w3.org/2000/svg">
<path d="M71.0417 64.1667H67.3979L66.1375 62.9063C70.6292 57.7042 73.3333 50.9438 73.3333 43.5417C73.3333 27.0875 59.9958 13.75 43.5417 13.75C27.0875 13.75 13.75 27.0875 13.75 43.5417C13.75 59.9958 27.0875 73.3333 43.5417 73.3333C50.9438 73.3333 57.7042 70.6292 62.9063 66.1604L64.1667 67.4208V71.0417L87.0833 93.9125L93.9125 87.0833L71.0417 64.1667ZM43.5417 64.1667C32.1521 64.1667 22.9167 54.9313 22.9167 43.5417C22.9167 32.1521 32.1521 22.9167 43.5417 22.9167C54.9313 22.9167 64.1667 32.1521 64.1667 43.5417C64.1667 54.9313 54.9313 64.1667 43.5417 64.1667Z" fill="#3F3D56"/>
</svg>
