<svg width="644" height="401" viewBox="0 0 644 401" fill="none" xmlns="http://www.w3.org/2000/svg">
<g clip-path="url(#clip0)">
<path d="M577.935 78.3029H445.98V319.012H577.935V78.3029Z" fill="#E6E6E6"/>
<path d="M458.306 306.686H565.61V90.6283H458.306V306.686Z" fill="white"/>
<path d="M530.874 136.968H499.536V139.878H530.874V136.968Z" fill="#E6E6E6"/>
<path d="M554.156 147.035H499.536V149.946H554.156V147.035Z" fill="#E6E6E6"/>
<path d="M554.102 157.103H499.536V160.013H554.102V157.103Z" fill="#E6E6E6"/>
<path d="M493.041 137.011H469.76V160.293H493.041V137.011Z" fill="#E6E6E6"/>
<path d="M530.874 186.995H499.536V189.905H530.874V186.995Z" fill="#E6E6E6"/>
<path d="M554.156 197.062H499.536V199.972H554.156V197.062Z" fill="#E6E6E6"/>
<path d="M554.102 207.13H499.536V210.04H554.102V207.13Z" fill="#E6E6E6"/>
<path d="M493.041 187.038H469.76V210.32H493.041V187.038Z" fill="#E6E6E6"/>
<path d="M530.874 237.022H499.536V239.932H530.874V237.022Z" fill="#E6E6E6"/>
<path d="M554.156 247.089H499.536V249.999H554.156V247.089Z" fill="#E6E6E6"/>
<path d="M554.102 257.156H499.536V260.067H554.102V257.156Z" fill="#E6E6E6"/>
<path d="M493.041 237.065H469.76V260.347H493.041V237.065Z" fill="#E6E6E6"/>
<path d="M209.622 78.3029H77.667V319.012H209.622V78.3029Z" fill="#E6E6E6"/>
<path d="M89.9922 306.686H197.296V90.6283H89.9922V306.686Z" fill="white"/>
<path d="M162.561 136.968H131.223V139.878H162.561V136.968Z" fill="#E6E6E6"/>
<path d="M185.842 147.035H131.223V149.946H185.842V147.035Z" fill="#E6E6E6"/>
<path d="M185.789 157.103H131.223V160.013H185.789V157.103Z" fill="#E6E6E6"/>
<path d="M124.728 137.011H101.446V160.293H124.728V137.011Z" fill="#E6E6E6"/>
<path d="M162.561 186.995H131.223V189.905H162.561V186.995Z" fill="#E6E6E6"/>
<path d="M185.842 197.062H131.223V199.972H185.842V197.062Z" fill="#E6E6E6"/>
<path d="M185.789 207.13H131.223V210.04H185.789V207.13Z" fill="#E6E6E6"/>
<path d="M124.728 187.038H101.446V210.32H124.728V187.038Z" fill="#E6E6E6"/>
<path d="M162.561 237.022H131.223V239.932H162.561V237.022Z" fill="#E6E6E6"/>
<path d="M185.842 247.089H131.223V249.999H185.842V247.089Z" fill="#E6E6E6"/>
<path d="M185.789 257.156H131.223V260.067H185.789V257.156Z" fill="#E6E6E6"/>
<path d="M124.728 237.065H101.446V260.347H124.728V237.065Z" fill="#E6E6E6"/>
<path d="M321.998 338.587C499.786 338.587 643.912 332.745 643.912 325.537C643.912 318.329 499.786 312.486 321.998 312.486C144.21 312.486 0.0839844 318.329 0.0839844 325.537C0.0839844 332.745 144.21 338.587 321.998 338.587Z" fill="#E6E6E6"/>
<path d="M417.626 0H237.977V327.712H417.626V0Z" fill="#3F3D56"/>
<path d="M245.739 319.374H409.862V8.33783H245.739V319.374Z" fill="white"/>
<path d="M353.554 79.8696H310.889V83.8316H353.554V79.8696Z" fill="#2CC1BD"/>
<path d="M385.251 93.5756H310.889V97.5376H385.251V93.5756Z" fill="#E6E6E6"/>
<path d="M385.178 107.282H310.889V111.244H385.178V107.282Z" fill="#E6E6E6"/>
<path d="M302.047 79.9283H270.351V111.625H302.047V79.9283Z" fill="#2CC1BD"/>
<path d="M353.554 147.978H310.889V151.94H353.554V147.978Z" fill="#2CC1BD"/>
<path d="M385.251 161.684H310.889V165.646H385.251V161.684Z" fill="#E6E6E6"/>
<path d="M385.178 175.39H310.889V179.352H385.178V175.39Z" fill="#E6E6E6"/>
<path d="M302.047 148.037H270.351V179.734H302.047V148.037Z" fill="#2CC1BD"/>
<path d="M353.554 216.087H310.889V220.049H353.554V216.087Z" fill="#2CC1BD"/>
<path d="M385.251 229.793H310.889V233.755H385.251V229.793Z" fill="#E6E6E6"/>
<path d="M385.178 243.499H310.889V247.461H385.178V243.499Z" fill="#E6E6E6"/>
<path d="M302.047 216.146H270.351V247.843H302.047V216.146Z" fill="#2CC1BD"/>
<path d="M262.186 232.371L260.011 241.796C260.011 241.796 260.736 263.547 254.936 261.372C249.135 259.197 250.585 240.346 250.585 240.346L255.661 230.921L262.186 232.371Z" fill="#FFB8B8"/>
<path d="M229.922 129.055C237.931 129.055 244.423 122.563 244.423 114.554C244.423 106.546 237.931 100.054 229.922 100.054C221.914 100.054 215.422 106.546 215.422 114.554C215.422 122.563 221.914 129.055 229.922 129.055Z" fill="#FFB8B8"/>
<path d="M218.684 118.542L217.234 139.568L235.36 141.743C235.36 141.743 235.36 124.342 236.81 122.167C238.26 119.992 218.684 118.542 218.684 118.542Z" fill="#FFB8B8"/>
<path d="M258.923 145.73L235.445 135.788C235.445 135.788 224.23 127.134 217.651 133.532L214.697 137.755C214.697 137.755 188.596 147.905 188.596 155.881L198.746 195.757C198.746 195.757 192.946 218.233 201.646 219.683L248.773 224.033C248.773 224.033 255.298 216.058 249.498 205.908L251.673 181.982L258.923 145.73Z" fill="#575A89"/>
<path d="M242.973 146.455L258.923 145.73C258.923 145.73 263.998 147.18 267.624 160.956C271.249 174.731 271.974 197.207 271.974 197.207L263.273 237.809L252.398 236.359L256.748 197.207L249.498 171.106L242.973 146.455Z" fill="#575A89"/>
<path d="M197.296 150.806L189.432 153.255C189.432 153.255 182.796 163.131 182.796 168.206C182.796 173.281 179.896 211.708 179.896 211.708L198.746 242.884L204.546 227.658L192.946 208.083L202.371 184.157L197.296 150.806Z" fill="#575A89"/>
<path d="M250.948 222.583L198.821 217.997C198.821 217.997 193.671 250.859 194.396 263.91C195.121 276.96 195.846 297.261 195.846 297.261L190.046 385.714L212.522 382.814L215.422 309.586L224.847 269.71L235.723 320.462L242.973 385.714L262.549 383.539L256.023 304.511C256.023 304.511 261.824 233.459 250.948 222.583Z" fill="#2F2E41"/>
<path d="M258.198 379.914L264.724 382.089C264.724 382.089 278.499 378.464 274.874 387.889C271.249 397.315 261.098 395.865 261.098 395.865C261.098 395.865 248.773 405.29 243.698 398.04L246.598 382.814L258.198 379.914Z" fill="#2F2E41"/>
<path d="M205.272 379.914L211.797 382.089C211.797 382.089 225.572 378.464 221.947 387.889C218.322 397.315 208.172 395.865 208.172 395.865C208.172 395.865 195.846 405.29 190.771 398.04L193.671 382.814L205.272 379.914Z" fill="#2F2E41"/>
<path d="M218.684 127.242C218.684 127.242 203.459 116.367 211.434 103.316C216.967 94.2626 228.432 94.9793 234.935 96.2674C236.687 96.5908 238.334 97.3354 239.735 98.4371C241.135 99.5388 242.246 100.964 242.973 102.591C244.06 105.129 244.06 107.666 239.71 107.666C231.01 107.666 235.36 114.192 235.36 114.192C235.36 114.192 229.56 115.642 231.01 120.717C232.46 125.792 218.684 127.242 218.684 127.242Z" fill="#2F2E41"/>
</g>
<defs>
<clipPath id="clip0">
<rect width="643.828" height="400.781" fill="white" transform="translate(0.0839844)"/>
</clipPath>
</defs>
</svg>
