<svg width="542" height="404" viewBox="0 0 542 404" fill="none" xmlns="http://www.w3.org/2000/svg">
<g clip-path="url(#clip0)">
<path d="M390.116 380.135H60.4648V381.534H390.116V380.135Z" fill="#3F3D56"/>
<path d="M235.286 187.542C235.286 187.542 228.29 219.024 242.282 213.427C256.274 207.831 247.878 186.143 247.878 186.143L235.286 187.542Z" fill="#FFB9B9"/>
<path d="M366.111 198.036C366.111 198.036 382.902 218.325 372.408 222.522C361.914 226.72 356.317 203.633 357.716 201.534C359.115 199.435 366.111 198.036 366.111 198.036Z" fill="#FFB9B9"/>
<path d="M326.234 54.6176C337.826 54.6176 347.222 45.2209 347.222 33.6295C347.222 22.0381 337.826 12.6414 326.234 12.6414C314.643 12.6414 305.246 22.0381 305.246 33.6295C305.246 45.2209 314.643 54.6176 326.234 54.6176Z" fill="#FFB9B9"/>
<path d="M310.493 41.675L307.695 63.3626L330.781 71.7576L335.679 47.2715L310.493 41.675Z" fill="#FFB9B9"/>
<path d="M323.435 63.0127C323.435 63.0127 311.575 57.1577 309.11 52.3896L303.847 57.4159C303.847 57.4159 266.068 53.9179 260.471 72.8072C254.874 91.6965 259.772 160.258 259.772 160.258C259.772 160.258 252.076 191.04 254.175 191.74C256.273 192.439 282.159 205.032 318.538 198.036C318.538 198.036 334.629 195.238 337.427 197.337C340.226 199.435 336.028 163.756 336.028 163.756C336.028 163.756 364.012 100.791 359.115 93.0957C354.218 85.4 332.53 69.3091 332.53 69.3091L333.929 61.6135C333.929 61.6135 324.135 65.8111 323.435 63.0127Z" fill="#CFCCE0"/>
<path d="M266.069 67.91C266.069 67.91 253.476 74.2064 251.377 84.0009C249.278 93.7953 229.689 174.949 231.788 179.847C233.887 184.744 233.187 191.04 233.187 191.04L251.377 188.941C251.377 188.941 247.879 184.044 249.978 181.945C252.076 179.847 254.175 172.851 252.776 170.052C251.377 167.254 249.978 172.151 257.673 163.056C265.369 153.961 282.859 70.7084 266.069 67.91Z" fill="#CFCCE0"/>
<path d="M354.918 91.6965C354.918 91.6965 360.864 92.0463 362.264 101.841C363.663 111.635 366.111 172.151 366.111 172.151C366.111 172.151 375.206 191.74 371.708 194.538C368.21 197.337 370.309 201.534 370.309 201.534L357.716 205.032L330.432 162.356L354.918 91.6965Z" fill="#CFCCE0"/>
<path d="M256.274 188.941C256.274 188.941 252.076 189.641 252.076 205.032C252.076 220.424 244.381 267.997 249.278 275.692C254.175 283.388 254.875 352.649 254.875 352.649C254.875 352.649 268.167 358.245 279.361 340.056L280.76 330.261L283.558 282.688L294.752 223.222L310.143 288.985C310.143 288.985 308.045 368.04 315.74 368.04C323.436 368.04 338.128 361.743 338.128 361.743C338.128 361.743 341.626 354.747 340.226 351.249C338.827 347.751 337.428 348.451 338.827 345.653C340.226 342.854 342.325 270.095 342.325 270.095C342.325 270.095 339.527 195.238 336.029 193.139C332.531 191.04 256.274 188.941 256.274 188.941Z" fill="#2F2E41"/>
<path d="M256.274 349.85L245.08 361.743C245.08 361.743 224.792 380.633 242.282 381.332C259.772 382.032 269.566 370.139 269.566 368.739C269.566 367.34 270.266 362.443 275.163 362.443C280.06 362.443 291.953 350.55 289.155 345.653C286.357 340.755 277.961 338.657 277.961 338.657L256.274 349.85Z" fill="#2F2E41"/>
<path d="M316.44 365.241C316.44 365.241 308.044 382.032 312.942 385.53C317.839 389.028 319.238 390.427 319.238 390.427C319.238 390.427 323.436 389.728 322.736 396.024C322.036 402.32 347.922 405.819 349.321 400.921C350.72 396.024 350.021 386.23 347.222 383.431C344.424 380.633 336.029 361.044 336.029 361.044C336.029 361.044 326.934 350.55 316.44 365.241Z" fill="#2F2E41"/>
<path d="M347.416 16.7765L351.37 16.2149C351.37 16.2149 345.866 6.08436 335.213 4.24484L338.952 1.72094C338.952 1.72094 332.454 -2.92288 324.056 3.04617C319.642 6.18395 314.516 9.88778 310.746 14.5497L306.889 13.6072L307.632 17.5449L301.132 19.7124L307.071 20.489C306.252 22.3457 305.714 24.3143 305.477 26.3296C305.247 28.3474 305.809 30.3757 307.046 31.9865C307.046 31.9865 313.772 23.8331 314.124 22.3913L313.243 25.9958C313.243 25.9958 317.638 23.6319 318.166 21.4693L319.514 24.4724L321.465 20.7476L332.61 27.6729L331.438 23.9489L338.704 26.8705L336.726 22.1855C336.726 22.1855 344.093 28.9516 343.452 32.9965C342.81 37.0414 344.384 41.4073 344.384 41.4073C344.384 41.4073 355.589 24.5036 347.416 16.7765Z" fill="#2F2E41"/>
<path d="M541.165 254.571H429.128V255.912H541.165V254.571Z" fill="#3F3D56"/>
<path d="M122.383 357.869H95.3765V384.875H122.383V357.869Z" fill="#CFCCE0"/>
<path d="M118.829 381.321H90.4019V352.894H118.829V381.321ZM91.8232 379.9H117.408V354.315H91.8232L91.8232 379.9Z" fill="#3F3D56"/>
<path d="M151.929 121.897L134.838 128.507L141.219 145.006L158.31 138.396L151.929 121.897Z" fill="#F2F2F2"/>
<path d="M155.221 137.095L137.231 144.053L130.514 126.685L148.504 119.728L155.221 137.095ZM137.795 142.836L153.986 136.574L147.941 120.944L131.75 127.206L137.795 142.836Z" fill="#3F3D56"/>
<path d="M465.975 323.033L460.018 305.704L443.289 311.455L449.246 328.784L465.975 323.033Z" fill="#F2F2F2"/>
<path d="M450.663 325.747L444.392 307.506L462.001 301.452L468.273 319.693L450.663 325.747ZM445.586 308.116L451.23 324.532L467.079 319.084L461.435 302.667L445.586 308.116Z" fill="#3F3D56"/>
<path d="M84.9695 236.889C94.9897 237.104 102.961 244.366 102.961 244.366C102.961 244.366 94.6857 251.279 84.6655 251.064C74.6453 250.849 66.6743 243.587 66.6743 243.587C66.6743 243.587 74.9493 236.674 84.9695 236.889Z" fill="#2CC1BD"/>
<path d="M34.5933 202.685C43.6461 206.986 54.0268 204.07 54.0268 204.07C54.0268 204.07 49.7299 194.18 40.6771 189.879C31.6243 185.578 21.2437 188.495 21.2437 188.495C21.2437 188.495 25.5405 198.384 34.5933 202.685Z" fill="#2CC1BD"/>
<path d="M35.5133 198.411C45.4942 197.499 54.2304 203.819 54.2304 203.819C54.2304 203.819 46.7845 211.618 36.8036 212.53C26.8227 213.442 18.0864 207.122 18.0864 207.122C18.0864 207.122 25.5324 199.323 35.5133 198.411Z" fill="#3F3D56"/>
<path d="M72.1006 200.139C71.144 210.116 77.4249 218.881 77.4249 218.881C77.4249 218.881 85.2568 211.469 86.2135 201.493C87.1701 191.516 80.8892 182.752 80.8892 182.752C80.8892 182.752 73.0573 190.163 72.1006 200.139Z" fill="#3F3D56"/>
<path d="M119.106 261.326C113.871 269.873 115.672 280.504 115.672 280.504C115.672 280.504 125.961 277.278 131.196 268.732C136.431 260.185 134.63 249.554 134.63 249.554C134.63 249.554 124.341 252.78 119.106 261.326Z" fill="#3F3D56"/>
<path d="M103.918 354.25L104.681 353.734C101.992 349.832 100.524 345.218 100.463 340.479C100.484 333.547 103.889 327.136 107.182 320.935C107.793 319.784 108.402 318.637 108.988 317.491C111.448 312.816 113.408 307.894 114.837 302.809C119.944 283.828 114.916 261.434 101.385 242.905C90.6516 228.206 74.6511 215.353 52.4698 203.61L52.0391 204.424C74.094 216.1 89.9921 228.865 100.642 243.448C114.009 261.754 118.983 283.855 113.947 302.569C112.536 307.593 110.599 312.454 108.169 317.072C107.584 318.214 106.977 319.357 106.369 320.504C103.023 326.803 99.564 333.317 99.5419 340.477C99.6028 345.4 101.126 350.194 103.918 354.25Z" fill="#3F3D56"/>
<path d="M8.74691 204.82C13.5777 204.82 17.4938 200.904 17.4938 196.073C17.4938 191.243 13.5777 187.326 8.74691 187.326C3.91612 187.326 0 191.243 0 196.073C0 200.904 3.91612 204.82 8.74691 204.82Z" fill="#3F3D56"/>
<path d="M484.922 247.74L372.332 207.302L392.433 151.335L462.537 134.143L505.024 191.774L484.922 247.74Z" fill="#2F2E41"/>
<path d="M471.283 236.642L387.144 204.568C408.987 175.311 418.754 154.672 418.762 122.196L502.901 154.269C483.354 182.036 475.179 202.909 471.283 236.642Z" fill="#F2F2F2"/>
<path d="M477.906 158.658L434.316 142.042L433.543 144.069L477.133 160.686L477.906 158.658Z" fill="#3F3D56"/>
<path d="M474.815 166.768L431.225 150.152L430.452 152.179L474.042 168.795L474.815 166.768Z" fill="#3F3D56"/>
<path d="M471.723 174.878L428.133 158.261L427.36 160.289L470.95 176.905L471.723 174.878Z" fill="#3F3D56"/>
<path d="M468.632 182.988L425.042 166.371L424.269 168.399L467.859 185.015L468.632 182.988Z" fill="#3F3D56"/>
<path d="M465.54 191.097L421.95 174.481L421.177 176.509L464.767 193.125L465.54 191.097Z" fill="#3F3D56"/>
<path d="M462.449 199.207L418.858 182.591L418.086 184.618L461.676 201.235L462.449 199.207Z" fill="#3F3D56"/>
<path d="M459.357 207.317L415.767 190.701L414.994 192.728L458.584 209.344L459.357 207.317Z" fill="#3F3D56"/>
<path d="M456.266 215.427L412.676 198.81L411.903 200.838L455.493 217.454L456.266 215.427Z" fill="#3F3D56"/>
<path d="M482.322 254.982L369.731 214.544L392.433 151.335L439.979 195.916L505.024 191.774L482.322 254.982Z" fill="#3F3D56"/>
<path d="M425.113 235.065L368.973 214.902L382.652 176.814L383.768 177.214L370.49 214.186L425.514 233.949L425.113 235.065Z" fill="#2CC1BD"/>
<path d="M405.158 194.56L388.697 188.648L386.332 195.232L402.793 201.144L405.158 194.56Z" fill="#2CC1BD"/>
<path d="M219.046 380.633L130.925 380.586L131.617 331.115L175.41 350.798L219.737 332.347L219.046 380.633Z" fill="#3F3D56"/>
<path d="M150.825 358.186L137.941 358.006L137.869 363.159L150.753 363.339L150.825 358.186Z" fill="#2CC1BD"/>
<path d="M220.032 332.28L175.491 354.987L131.385 332.28V330.969H220.032V332.28Z" fill="#2CC1BD"/>
<path d="M476.093 145.033C477.145 142.27 471.799 137.668 464.151 134.752C456.504 131.837 449.45 131.713 448.397 134.475C447.344 137.238 452.691 141.84 460.338 144.755C467.986 147.671 475.04 147.795 476.093 145.033Z" fill="#2CC1BD"/>
<path d="M488.196 60.7916C485.371 59.9133 482.401 59.5999 479.455 59.8694C476.51 60.1389 473.646 60.986 471.027 62.3623C468.409 63.7386 466.087 65.6172 464.195 67.8908C462.302 70.1644 460.876 72.7884 459.998 75.6131C456.304 87.4927 466.371 130.982 466.371 130.982C466.371 130.982 499.324 100.87 503.017 88.9899C504.791 83.2851 504.226 77.1093 501.447 71.8211C498.667 66.5329 493.901 62.5655 488.196 60.7916ZM478.339 92.4904C476.324 91.8638 474.54 90.6537 473.213 89.0132C471.885 87.3726 471.074 85.3752 470.882 83.2736C470.69 81.1721 471.125 79.0607 472.133 77.2065C473.14 75.3523 474.675 73.8385 476.543 72.8567C478.411 71.8748 480.528 71.4689 482.627 71.6903C484.726 71.9118 486.712 72.7505 488.334 74.1006C489.956 75.4507 491.141 77.2515 491.74 79.2751C492.338 81.2988 492.323 83.4545 491.697 85.4697C491.28 86.8077 490.605 88.0507 489.709 89.1277C488.812 90.2046 487.712 91.0945 486.472 91.7464C485.232 92.3984 483.875 92.7996 482.48 92.9273C481.084 93.0549 479.677 92.9065 478.339 92.4904Z" fill="#2CC1BD"/>
</g>
<defs>
<clipPath id="clip0">
<rect width="541.165" height="403.228" fill="white"/>
</clipPath>
</defs>
</svg>
