<svg width="712" height="393" viewBox="0 0 712 393" fill="none" xmlns="http://www.w3.org/2000/svg">
<g clip-path="url(#clip0)">
<path d="M712 391.204H455.638V392.388H712V391.204Z" fill="#3F3D56"/>
<path d="M308.214 253.898V127.837H466.679V0H0.377197V380.551H466.679V253.898H308.214Z" fill="#3F3D56"/>
<path opacity="0.1" d="M466.679 127.837V0H304.967V126.061H162.089V0H0.377197V127.837H146.502V253.898H0.377197V380.551H309.513V253.898H308.214V127.837H466.679Z" fill="white"/>
<path d="M112.082 0C112.081 26.9978 100.312 52.8896 79.3635 71.9799C58.415 91.0702 30.0029 101.795 0.377197 101.796V0H112.082Z" fill="#2CC1BD"/>
<path opacity="0.1" d="M52.3328 0C52.3322 12.557 46.8581 24.5996 37.1147 33.4787C27.3712 42.3579 14.1565 47.3464 0.377197 47.347V73.3878C21.7352 73.3871 42.2182 65.655 57.3205 51.8923C72.4229 38.1295 80.9076 19.4634 80.9084 0H52.3328Z" fill="black"/>
<path d="M466.679 35.5102V17.1633H359.52V0H336.14V17.1633V35.5102V49.7143V68.0612H359.52H466.679V49.7143H359.52V35.5102H466.679Z" fill="#D0CDE1"/>
<path d="M278.989 195.898C278.991 186.694 276.085 177.685 270.619 169.945C265.153 162.206 257.357 156.064 248.164 152.253C238.971 148.443 228.768 147.124 218.774 148.456C208.781 149.787 199.419 153.712 191.808 159.761C184.196 165.811 178.656 173.729 175.85 182.571C173.044 191.412 173.09 200.803 175.983 209.621C178.876 218.439 184.493 226.312 192.164 232.299C199.834 238.287 209.234 242.135 219.24 243.385V310.714H133.017C131.207 298.678 124.449 287.716 114.109 280.046C103.77 272.376 90.6206 268.57 77.3195 269.397C64.0185 270.224 51.5581 275.622 42.4574 284.501C33.3568 293.379 28.2947 305.075 28.2947 317.225C28.2947 329.374 33.3568 341.07 42.4574 349.949C51.5581 358.827 64.0185 364.225 77.3195 365.052C90.6206 365.879 103.77 362.073 114.109 354.403C124.449 346.733 131.207 335.772 133.017 323.735H219.24V352.143H233.528V323.735H262.753V310.714H233.528V243.385C246.123 241.812 257.666 236.135 266.024 227.405C274.381 218.676 278.987 207.483 278.989 195.898Z" fill="#D0CDE1"/>
<path d="M407.254 263.523L430.64 300.435L454.025 337.347H407.254H360.483L383.869 300.435L407.254 263.523Z" fill="#D0CDE1"/>
<path d="M396.863 342.082H350.092L373.478 305.169L373.64 304.913L365.04 291.339L341.655 328.251L318.269 365.163H365.04H411.812L397.188 342.082H396.863Z" fill="#2CC1BD"/>
<path d="M103.639 204.184V172.225H121.174V153.286H34.1483V232.592H121.174V204.184H103.639Z" fill="#D0CDE1"/>
<path d="M90.65 138.49H58.1778V168.082H90.65V138.49Z" fill="#2CC1BD"/>
<path d="M608.928 141.951L598.183 167.829L559.435 180.219C559.435 180.219 536.055 177.851 536.055 189.688C536.055 198.081 563.981 190.872 563.981 190.872L615.067 176.92L631.184 140.553L608.928 141.951Z" fill="#FFB8B8"/>
<path d="M564.745 134.939H412.775V254.49H564.745V134.939Z" fill="#2CC1BD"/>
<path d="M485.837 171.197L509.222 208.108L532.608 245.02H485.837H439.066L462.452 208.108L485.837 171.197Z" fill="#3F3D56"/>
<path d="M485.727 197.919L496.335 214.664L506.944 231.408H485.727H464.51L475.119 214.664L485.727 197.919Z" fill="#D0CDE1"/>
<path d="M485.727 143.47L496.335 160.215L506.944 176.959H485.727H464.51L475.119 160.215L485.727 143.47Z" fill="#D0CDE1"/>
<path d="M631.653 125.137C631.653 125.137 620.909 123.738 615.536 141.922C610.164 160.106 608.629 161.504 608.629 161.504C608.629 161.504 640.095 165.701 640.863 164.302C641.63 162.903 647.77 129.333 631.653 125.137Z" fill="#333072"/>
<path d="M625.513 118.143C636.958 118.143 646.235 109.688 646.235 99.2594C646.235 88.8304 636.958 80.376 625.513 80.376C614.069 80.376 604.792 88.8304 604.792 99.2594C604.792 109.688 614.069 118.143 625.513 118.143Z" fill="#FFB8B8"/>
<path d="M616.304 114.646C616.304 114.646 623.211 130.732 620.909 132.83C618.606 134.928 649.305 137.725 649.305 137.725C649.305 137.725 651.607 127.235 642.398 120.94C642.398 120.94 638.56 110.45 639.328 108.351C640.095 106.253 616.304 114.646 616.304 114.646Z" fill="#FFB8B8"/>
<path d="M634.723 121.64C626.856 124.347 619.77 128.652 614.002 134.229C604.792 143.321 600.187 146.118 600.187 146.118C600.187 146.118 589.443 149.615 593.28 166.4C595.199 174.793 593.856 184.234 592.033 191.578C589.249 202.974 587.865 214.617 587.908 226.292V233.541C587.908 233.541 517.302 368.522 541.093 377.614C564.884 386.706 586.373 389.503 587.908 387.405C589.443 385.307 617.071 276.203 617.071 276.203C617.071 276.203 624.746 393 643.932 393C663.119 393 694.585 388.104 694.585 388.104L655.444 248.228C655.444 248.228 664.654 224.449 641.63 207.664L638.56 199.97C651.292 199.976 657.112 126.541 643.932 120.241C643.932 120.241 640.863 118.143 634.723 121.64Z" fill="#333072"/>
<path d="M615.536 159.406L604.792 185.283L566.044 197.674C566.044 197.674 542.664 195.306 542.664 207.143C542.664 215.536 570.59 208.327 570.59 208.327L621.676 194.375L637.793 158.008L615.536 159.406Z" fill="#FFB8B8"/>
<path d="M564.5 393C571.918 393 577.931 389.869 577.931 386.006C577.931 382.144 571.918 379.012 564.5 379.012C557.083 379.012 551.07 382.144 551.07 386.006C551.07 389.869 557.083 393 564.5 393Z" fill="#333072"/>
<path d="M667.34 393C674.757 393 680.77 389.869 680.77 386.006C680.77 382.144 674.757 379.012 667.34 379.012C659.922 379.012 653.909 382.144 653.909 386.006C653.909 389.869 659.922 393 667.34 393Z" fill="#333072"/>
<path d="M633.513 72.779H633.513C632.446 72.7809 631.382 72.8774 630.335 73.067C628.445 72.2306 626.371 71.795 624.269 71.7929H623.719C613.104 71.7929 604.499 80.5462 604.499 91.344V91.344H608.056L608.63 87.3597L609.472 91.344H612.435C611.513 94.5411 611.051 97.8336 611.059 101.139V121.039H616.436L619.55 113.666L618.772 121.039H653.337L656.167 114.336L655.46 121.039H659.352V105.414C659.351 87.3903 647.783 72.779 633.513 72.779Z" fill="#333072"/>
</g>
<defs>
<clipPath id="clip0">
<rect width="711.623" height="393" fill="white" transform="translate(0.377197)"/>
</clipPath>
</defs>
</svg>
