<svg width="547" height="350" viewBox="0 0 547 350" fill="none" xmlns="http://www.w3.org/2000/svg">
<g clip-path="url(#clip0)">
<path d="M546.309 0.309326H0.297119V350H546.309V0.309326Z" fill="#E6E6E6"/>
<path d="M530.696 44.1697H15.9102V329.313H530.696V44.1697Z" fill="white"/>
<path d="M546.076 0H0.0637207V23.1967H546.076V0Z" fill="#2CC1BD"/>
<path d="M486.473 75.3729H299.092V256.24H486.473V75.3729Z" fill="#E6E6E6"/>
<path d="M17.3012 16.1584C19.6756 16.1584 21.6004 14.2336 21.6004 11.8592C21.6004 9.48482 19.6756 7.56 17.3012 7.56C14.9268 7.56 13.002 9.48482 13.002 11.8592C13.002 14.2336 14.9268 16.1584 17.3012 16.1584Z" fill="white"/>
<path d="M33.6205 16.1584C35.9949 16.1584 37.9197 14.2336 37.9197 11.8592C37.9197 9.48482 35.9949 7.56 33.6205 7.56C31.2461 7.56 29.3213 9.48482 29.3213 11.8592C29.3213 14.2336 31.2461 16.1584 33.6205 16.1584Z" fill="white"/>
<path d="M49.9398 16.1584C52.3142 16.1584 54.2391 14.2336 54.2391 11.8592C54.2391 9.48482 52.3142 7.56 49.9398 7.56C47.5655 7.56 45.6406 9.48482 45.6406 11.8592C45.6406 14.2336 47.5655 16.1584 49.9398 16.1584Z" fill="white"/>
<path d="M105.465 75.001H55.4968V124.969H105.465V75.001Z" fill="#2CC1BD"/>
<path d="M174.952 75.2874H124.984V125.255H174.952V75.2874Z" fill="#E6E6E6"/>
<path d="M175.15 143.925H125.182V310.19H175.15V143.925Z" fill="#2CC1BD"/>
<path d="M104.101 143.554H54.1335V228.622H104.101V143.554Z" fill="#E6E6E6"/>
<path d="M391.516 103.942C383.287 90.0412 367.014 89.3938 367.014 89.3938C367.014 89.3938 351.155 87.366 340.981 108.536C331.498 128.268 318.41 147.318 338.876 151.939L342.572 140.434L344.861 152.795C347.775 153.004 350.698 153.054 353.617 152.944C375.531 152.237 396.401 153.152 395.729 145.29C394.834 134.834 399.431 117.316 391.516 103.942Z" fill="#2F2E41"/>
<path d="M335.356 235.933L307.613 255.197C307.613 255.197 291.429 272.152 302.989 272.152C314.549 272.152 319.173 257.509 319.173 257.509L354.623 242.097L335.356 235.933Z" fill="#FFB8B8"/>
<path d="M346.53 160.795C346.53 160.795 322.255 235.936 329.961 239.788C337.667 243.639 354.621 245.953 354.621 245.953L346.53 160.795Z" fill="#2F2E41"/>
<path opacity="0.1" d="M346.53 160.795C346.53 160.795 322.255 235.936 329.961 239.788C337.667 243.639 354.621 245.953 354.621 245.953L346.53 160.795Z" fill="black"/>
<path d="M422.848 255.587H368.201L407.026 235.936C407.882 236.491 408.704 237.098 409.485 237.755C415.242 242.601 419.813 248.701 422.848 255.587Z" fill="#2F2E41"/>
<path d="M361.943 141.528C373.009 141.528 381.98 132.557 381.98 121.491C381.98 110.425 373.009 101.455 361.943 101.455C350.877 101.455 341.906 110.425 341.906 121.491C341.906 132.557 350.877 141.528 361.943 141.528Z" fill="#FFB8B8"/>
<path d="M361.558 138.061C361.558 138.061 366.182 152.703 361.558 158.098C356.934 163.493 386.99 150.391 386.99 150.391C386.99 150.391 376.201 134.978 379.283 128.042L361.558 138.061Z" fill="#FFB8B8"/>
<path d="M405.946 204.961L404.328 215.512C404.328 215.512 405.145 217.908 406.138 221.4C407.433 225.954 409.029 232.371 409.483 237.753C409.953 243.209 409.244 247.601 405.869 247.879C401.029 248.279 398.509 251.216 395.996 255.586H340.247C340.394 253.181 340.57 250.684 340.779 248.118C340.894 246.577 341.022 245.015 341.162 243.432C341.316 241.614 346.775 207.451 342.672 200.099C334.197 184.918 344.984 176.209 344.984 176.209C344.984 176.209 346.525 164.649 346.525 160.796C346.525 157.775 358.362 154.284 363.48 152.912C363.812 152.827 364.104 152.742 364.373 152.681C365.259 152.45 365.791 152.319 365.791 152.319L369.837 150.66C369.837 150.66 381.204 148.464 381.975 146.922C382.468 146.258 383.158 145.767 383.948 145.519C385.574 144.826 387.647 144.332 388.14 143.839C388.845 143.029 389.481 142.163 390.044 141.249C391.522 139.554 393.514 138.389 395.716 137.932C403.993 135.844 415.884 139.982 415.884 139.982L411.722 167.148L405.946 204.961Z" fill="#2F2E41"/>
<path d="M430.147 188.153L402.403 207.417C402.403 207.417 386.219 224.372 397.779 224.372C409.339 224.372 413.96 209.732 413.96 209.732L449.41 194.319L430.147 188.153Z" fill="#FFB8B8"/>
<path d="M382.484 102.601L366.404 94.1816L356.32 95.7444C352.746 96.2992 349.421 97.9157 346.778 100.384C344.134 102.852 342.294 106.059 341.496 109.586L339.608 117.915L351.044 117.475L354.239 110.021V117.352L359.516 117.149L362.578 105.281L364.491 117.915L383.251 117.532L382.484 102.601Z" fill="#2F2E41"/>
<path d="M410.495 141.529L415.889 139.987C415.889 139.987 470.605 162.336 469.064 181.603C467.523 200.869 469.835 200.866 460.587 201.639C451.339 202.412 424.369 193.162 425.134 191.621C425.9 190.08 431.299 182.372 431.299 182.372L410.491 166.188L410.495 141.529Z" fill="#2F2E41"/>
<path d="M381.981 124.575C383.683 124.575 385.063 123.194 385.063 121.492C385.063 119.789 383.683 118.409 381.981 118.409C380.278 118.409 378.898 119.789 378.898 121.492C378.898 123.194 380.278 124.575 381.981 124.575Z" fill="#FFB8B8"/>
<path d="M486.473 285.31H299.092V310.294H486.473V285.31Z" fill="#E6E6E6"/>
<path d="M104.101 247.395H54.1335V309.819H104.101V247.395Z" fill="#E6E6E6"/>
<path d="M246.199 75.6287H196.231V228.621H246.199V75.6287Z" fill="#E6E6E6"/>
<path d="M246.001 247.547H196.033V310.008H246.001V247.547Z" fill="#E6E6E6"/>
</g>
<defs>
<clipPath id="clip0">
<rect width="546.245" height="350" fill="white" transform="translate(0.0637207)"/>
</clipPath>
</defs>
</svg>
