<svg width="716" height="560" viewBox="0 0 716 560" fill="none" xmlns="http://www.w3.org/2000/svg">
<g clip-path="url(#clip0)">
<path d="M203.238 115.381C203.241 119.676 202.324 123.923 200.55 127.835C198.775 131.747 196.185 135.235 192.952 138.063C189.718 140.891 185.918 142.995 181.804 144.234C177.691 145.472 173.36 145.816 169.103 145.242C168.961 145.233 168.82 145.212 168.682 145.179C167.592 145.025 166.511 144.805 165.447 144.521C164.742 144.346 164.052 144.132 163.37 143.894C158.746 142.315 154.577 139.634 151.219 136.084C147.862 132.535 145.419 128.222 144.1 123.517C142.78 118.813 142.625 113.858 143.646 109.081C144.668 104.303 146.836 99.845 149.964 96.0916C153.092 92.3381 157.085 89.4016 161.6 87.535C166.116 85.6684 171.017 84.9278 175.882 85.3769C180.747 85.8261 185.43 87.4516 189.527 90.1134C193.624 92.7751 197.013 96.3932 199.4 100.656C200.285 102.223 201.023 103.869 201.605 105.572C202.241 107.415 202.692 109.317 202.953 111.249C203.103 112.287 203.193 113.333 203.222 114.381C203.23 114.714 203.238 115.04 203.238 115.381Z" fill="#2F2E41"/>
<path d="M68.3826 255.381L44.8656 264.934C44.8656 264.934 2.24089 252.441 10.3249 264.934C18.4089 277.428 47.0703 273.018 47.0703 273.018L83.0808 264.934L68.3826 255.381Z" fill="#A0616A"/>
<path d="M192.582 378.11L194.787 417.795C194.787 417.795 194.787 462.625 197.726 478.793C200.666 494.961 205.81 522.887 205.81 522.887L219.774 521.417C219.774 521.417 218.304 489.816 219.774 481.732C221.244 473.648 219.774 422.94 219.774 422.94L221.978 376.64L192.582 378.11Z" fill="#A0616A"/>
<path d="M252.845 371.496L265.338 414.121C265.338 414.121 273.422 462.625 284.446 484.672L291.06 505.984L309.432 503.045L302.083 472.913L291.06 412.651L282.976 359.003L252.845 371.496Z" fill="#A0616A"/>
<path d="M220.509 511.864C220.509 511.864 209.485 510.394 202.871 515.538C202.871 515.538 205.076 555.223 208.015 555.958C210.955 556.693 230.797 561.102 231.532 555.958C232.267 550.814 225.653 539.79 225.653 539.79L220.509 511.864Z" fill="#2F2E41"/>
<path d="M288.12 502.31C288.12 502.31 291.795 513.333 290.325 514.803C288.855 516.273 282.976 533.176 286.65 535.381C290.325 537.585 308.698 546.404 310.902 553.018C313.107 559.633 344.708 560.367 341.768 554.488C338.829 548.609 319.721 531.706 319.721 531.706L309.432 499.37L288.12 502.31Z" fill="#2F2E41"/>
<path d="M183.028 148.819C195.611 148.819 205.81 138.619 205.81 126.037C205.81 113.454 195.611 103.255 183.028 103.255C170.446 103.255 160.246 113.454 160.246 126.037C160.246 138.619 170.446 148.819 183.028 148.819Z" fill="#A0616A"/>
<path d="M166.493 136.693L155.469 168.294L192.95 174.173C192.95 174.173 186.335 144.042 190.745 136.693C195.154 129.344 166.493 136.693 166.493 136.693Z" fill="#A0616A"/>
<path d="M291.06 348.714C289.715 373.596 250.216 376.325 243.517 376.609C243.245 376.62 242.977 376.539 242.758 376.378C242.539 376.216 242.382 375.985 242.313 375.722L234.613 346.571C234.539 346.291 234.366 346.048 234.125 345.886C233.885 345.724 233.594 345.656 233.306 345.693C233.019 345.73 232.755 345.871 232.564 346.089C232.373 346.306 232.267 346.586 232.267 346.876V375.812C232.266 376.056 232.191 376.294 232.052 376.495C231.913 376.696 231.716 376.849 231.487 376.935C185.16 394.275 166.292 367.829 164.133 364.487C163.994 364.271 163.929 364.015 163.949 363.759L171.755 258.034L172.005 254.646C171.828 254.557 171.652 254.462 171.468 254.352C156.473 245.656 135.563 184.27 132.659 175.566C132.566 175.285 132.58 174.979 132.7 174.709C132.82 174.438 133.036 174.221 133.307 174.102L151.851 165.86C152.054 165.77 152.228 165.624 152.353 165.44L159.284 155.22C159.388 155.067 159.526 154.939 159.687 154.849C159.849 154.758 160.03 154.706 160.215 154.697C160.4 154.689 160.585 154.724 160.754 154.799C160.924 154.875 161.073 154.989 161.191 155.132C163.68 158.167 169.604 163.564 171.448 165.223C171.615 165.373 171.821 165.472 172.042 165.51C172.263 165.548 172.491 165.522 172.698 165.435L189.947 158.306C190.109 158.238 190.285 158.208 190.46 158.216L213.493 159.327C216.57 159.475 219.513 160.625 221.876 162.601C224.239 164.577 225.892 167.271 226.582 170.273L241.046 233.159C241.071 233.273 241.114 233.382 241.173 233.483C241.273 233.656 241.459 233.978 241.725 234.436C242.424 235.641 243.666 237.816 245.312 240.749C257.592 262.546 292.272 326.321 291.06 348.714Z" fill="#2F2E41"/>
<path d="M139.301 177.848L133.422 174.173C133.422 174.173 120.194 182.257 120.194 189.606C120.194 196.955 102.556 225.617 102.556 225.617L64.3406 255.748L84.9181 272.651L153.265 223.412L139.301 177.848Z" fill="#2F2E41"/>
<path d="M715.156 558.53H82.7133V560H715.156V558.53Z" fill="#3F3D56"/>
<path d="M149.384 99.0656C155.18 99.0656 159.879 94.3671 159.879 88.5711C159.879 82.7752 155.18 78.0767 149.384 78.0767C143.588 78.0767 138.89 82.7752 138.89 88.5711C138.89 94.3671 143.588 99.0656 149.384 99.0656Z" fill="#2F2E41"/>
<path d="M136.891 87.0719C136.891 84.4621 137.864 81.946 139.62 80.0149C141.375 78.0837 143.788 76.8762 146.386 76.6279C146.057 76.5968 145.724 76.5775 145.386 76.5775C142.603 76.5775 139.934 77.6831 137.966 79.6512C135.997 81.6193 134.892 84.2886 134.892 87.0719C134.892 89.8553 135.997 92.5246 137.966 94.4927C139.934 96.4608 142.603 97.5664 145.386 97.5664C145.724 97.5664 146.057 97.5471 146.386 97.516C143.788 97.2677 141.375 96.0601 139.62 94.129C137.864 92.1979 136.891 89.6818 136.891 87.0719Z" fill="#2F2E41"/>
<path d="M197.633 113.654L201.989 115.238C203.339 114.39 206.35 112.715 206.466 112.649C206.192 110.598 202.934 100.245 202.012 98.6174C196.059 96.5252 190.007 94.624 183.764 93.7854C176.607 92.8141 169.102 93.2956 162.543 96.3343C155.992 99.3646 150.529 105.201 149.027 112.258C148.288 115.712 148.42 119.539 146.345 122.395C145.928 122.965 145.44 123.478 144.892 123.923C147.073 130.122 150.958 135.581 156.1 139.672C159.085 142.052 162.443 143.92 166.038 145.202L166.536 145.376C166.536 145.343 166.528 145.301 166.528 145.268C166.503 145.027 166.486 144.787 166.461 144.546C166.337 143.159 166.204 141.79 166.08 140.403C165.938 138.776 165.797 137.082 166.395 135.563C167.001 134.043 168.587 132.781 170.181 133.122C171.783 133.462 172.597 135.911 171.244 136.825C172.954 138.178 175.552 137.763 177.321 136.501C179.098 135.231 180.26 133.313 181.472 131.503C186.299 124.276 193.317 120.972 200.557 116.16L197.633 113.654Z" fill="#2F2E41"/>
<path d="M171.755 258.034L172.005 254.646C171.828 254.557 171.652 254.462 171.468 254.352C186.6 250.618 227.571 240.286 241.725 234.436C242.424 235.641 243.666 237.816 245.312 240.749C227.49 244.688 187.034 253.749 171.755 258.034Z" fill="#CFCCE0"/>
<path d="M178.733 289.82L9.3087 270.708L2.66134e-05 353.229L169.424 372.341L178.733 289.82Z" fill="#3F3D56"/>
<path d="M82.1547 334.331C84.7404 351.226 98.7862 363.093 98.7862 363.093C98.7862 363.093 108.64 347.568 106.054 330.673C103.468 313.778 89.4225 301.911 89.4225 301.911C89.4225 301.911 79.569 317.436 82.1547 334.331Z" fill="white"/>
<path d="M89.0692 331.543C99.9028 344.762 99.3349 363.141 99.3349 363.141C99.3349 363.141 81.2024 360.087 70.3688 346.867C59.5352 333.648 60.1031 315.268 60.1031 315.268C60.1031 315.268 78.2356 318.323 89.0692 331.543Z" fill="#52D1EC"/>
<path opacity="0.1" d="M208.382 197.69L217.201 230.761L201.033 255.748L208.382 230.761V197.69Z" fill="black"/>
<path d="M159.879 152.126C159.879 152.126 151.795 163.885 153.265 165.354C154.734 166.824 171.637 169.764 171.637 169.764V165.354L159.879 152.126Z" fill="#CFCCE0"/>
<path d="M190.01 152.126C190.01 152.126 198.094 163.885 196.624 165.354C195.154 166.824 171.637 169.764 171.637 169.764V165.354L190.01 152.126Z" fill="#CFCCE0"/>
<path d="M231.9 343.937C234.335 343.937 236.309 341.963 236.309 339.528C236.309 337.092 234.335 335.118 231.9 335.118C229.464 335.118 227.49 337.092 227.49 339.528C227.49 341.963 229.464 343.937 231.9 343.937Z" fill="#CFCCE0"/>
<path d="M226.755 327.034C229.191 327.034 231.165 325.06 231.165 322.625C231.165 320.189 229.191 318.215 226.755 318.215C224.32 318.215 222.346 320.189 222.346 322.625C222.346 325.06 224.32 327.034 226.755 327.034Z" fill="#CFCCE0"/>
<path d="M222.346 310.131C224.781 310.131 226.755 308.157 226.755 305.722C226.755 303.287 224.781 301.312 222.346 301.312C219.911 301.312 217.936 303.287 217.936 305.722C217.936 308.157 219.911 310.131 222.346 310.131Z" fill="#CFCCE0"/>
<path d="M217.936 292.493C220.372 292.493 222.346 290.519 222.346 288.084C222.346 285.649 220.372 283.675 217.936 283.675C215.501 283.675 213.527 285.649 213.527 288.084C213.527 290.519 215.501 292.493 217.936 292.493Z" fill="#CFCCE0"/>
<path d="M212.057 275.591C214.492 275.591 216.467 273.616 216.467 271.181C216.467 268.746 214.492 266.772 212.057 266.772C209.622 266.772 207.648 268.746 207.648 271.181C207.648 273.616 209.622 275.591 212.057 275.591Z" fill="#CFCCE0"/>
<path d="M208.015 257.585L183.763 278.163C183.763 278.163 157.306 300.945 169.065 306.824C180.824 312.703 194.787 283.307 194.787 283.307L227.123 259.79L208.015 257.585Z" fill="#A0616A"/>
<path d="M216.099 162.047C218.603 161.357 221.256 161.439 223.712 162.283C226.168 163.127 228.311 164.694 229.861 166.778C231.72 169.16 233.269 171.769 234.472 174.541C236.677 180.42 241.086 266.404 241.086 266.404L200.666 260.525L216.099 230.394V162.047Z" fill="#2F2E41"/>
<path d="M346.784 296.515H345.315V334.429H346.784V296.515Z" fill="#3F3D56"/>
<path d="M586.339 559.7H380.424C371.115 559.688 362.19 555.984 355.608 549.4C349.025 542.816 345.324 533.89 345.315 524.58V401.491H346.784V524.58C346.793 533.5 350.34 542.053 356.646 548.361C362.953 554.67 371.504 558.219 380.424 558.23H586.339C595.261 558.22 603.814 554.672 610.122 548.363C616.431 542.055 619.979 533.502 619.989 524.58V399.729H621.459V524.58C621.449 533.891 617.745 542.818 611.161 549.402C604.577 555.986 595.65 559.689 586.339 559.7Z" fill="#3F3D56"/>
<path d="M621.459 296.619H619.989V333.648H621.459V296.619Z" fill="#3F3D56"/>
<path d="M621.459 230.374H619.989V194.299H622.294C622.684 194.298 623.058 194.143 623.333 193.868C623.609 193.592 623.764 193.218 623.764 192.828V129.567C623.764 129.178 623.609 128.804 623.333 128.528C623.057 128.252 622.684 128.097 622.294 128.097H619.989V35.1102C619.978 26.19 616.429 17.6386 610.12 11.3319C603.812 5.02533 595.259 1.47858 586.339 1.46982H380.424C371.506 1.47995 362.955 5.02745 356.648 11.3341C350.342 17.6407 346.794 26.1913 346.784 35.1102V230.269H345.315V35.1102C345.325 25.8017 349.027 16.8774 355.61 10.2952C362.192 3.71308 371.116 0.0105776 380.424 0H586.339C595.649 0.00921376 604.575 3.71096 611.159 10.2931C617.743 16.8753 621.447 25.8003 621.459 35.1102V126.627H622.294C623.073 126.628 623.821 126.938 624.372 127.489C624.923 128.04 625.233 128.788 625.234 129.567V192.828C625.233 193.608 624.923 194.355 624.372 194.906C623.821 195.458 623.073 195.768 622.294 195.769H621.459V230.374Z" fill="#3F3D56"/>
<path d="M493.883 18.3673H459.262C458.231 18.3673 457.394 19.2037 457.394 20.2354V24.2878C457.394 25.3195 458.231 26.1558 459.262 26.1558H493.883C494.914 26.1558 495.751 25.3195 495.751 24.2878V20.2354C495.751 19.2037 494.914 18.3673 493.883 18.3673Z" fill="#E6E8EC"/>
<path d="M505.968 26.6793C508.408 26.6793 510.386 24.7014 510.386 22.2616C510.386 19.8218 508.408 17.8439 505.968 17.8439C503.528 17.8439 501.55 19.8218 501.55 22.2616C501.55 24.7014 503.528 26.6793 505.968 26.6793Z" fill="#E6E8EC"/>
<path d="M604.259 41.91V527.431C604.256 533.215 601.956 538.761 597.865 542.85C593.775 546.939 588.227 549.237 582.443 549.237H385.332C382.466 549.242 379.628 548.681 376.98 547.587C374.331 546.493 371.925 544.887 369.898 542.862C367.871 540.836 366.264 538.43 365.169 535.782C364.074 533.134 363.512 530.296 363.516 527.431V41.91C363.516 39.0451 364.08 36.2082 365.176 33.5613C366.273 30.9145 367.88 28.5095 369.906 26.4837C371.931 24.4579 374.336 22.851 376.983 21.7547C379.63 20.6584 382.467 20.0942 385.332 20.0943H414.833V23.8795C414.833 28.6436 416.726 33.2125 420.095 36.5812C423.463 39.95 428.032 41.8425 432.796 41.8425H533.042C537.806 41.8425 542.375 39.95 545.744 36.5812C549.113 33.2125 551.005 28.6436 551.005 23.8795V20.0943H582.443C585.308 20.0934 588.145 20.657 590.793 21.753C593.44 22.849 595.845 24.4559 597.871 26.4819C599.897 28.5078 601.504 30.9131 602.6 33.5604C603.696 36.2076 604.26 39.0448 604.259 41.91Z" fill="white"/>
<path opacity="0.2" d="M568.488 429.186H397.989V512.231H568.488V429.186Z" fill="black"/>
<path d="M633.671 297.369H334.104V229.526H633.671V297.369ZM335.866 295.607H631.909V231.288H335.866V295.607Z" fill="#3F3D56"/>
<path d="M391.374 252.434H357.893V285.915H391.374V252.434Z" fill="#52D1EC"/>
<path d="M386.969 281.51H351.726V246.267H386.969V281.51ZM353.488 279.748H385.207V248.029H353.488V279.748Z" fill="#3F3D56"/>
<path d="M599.309 253.315H442.477V255.078H599.309V253.315Z" fill="#3F3D56"/>
<path d="M599.309 265.651H442.477V267.413H599.309V265.651Z" fill="#3F3D56"/>
<path d="M599.309 277.986H442.477V279.748H599.309V277.986Z" fill="#3F3D56"/>
<path d="M633.671 401.491H334.104V333.648H633.671V401.491ZM335.866 399.729H631.909V335.41H335.866V399.729Z" fill="#3F3D56"/>
<path d="M576.401 390.037H609.882V356.556H576.401V390.037Z" fill="#52D1EC"/>
<path d="M616.049 385.631H580.806V350.388H616.049V385.631ZM582.568 383.869H614.287V352.151H582.568L582.568 383.869Z" fill="#3F3D56"/>
<path d="M525.298 357.437H368.466V359.199H525.298V357.437Z" fill="#3F3D56"/>
<path d="M525.298 369.772H368.466V371.534H525.298V369.772Z" fill="#3F3D56"/>
<path d="M525.298 382.107H368.466V383.869H525.298V382.107Z" fill="#3F3D56"/>
<path d="M561.973 121.318H405.141V123.08H561.973V121.318Z" fill="#3F3D56"/>
<path d="M561.973 133.653H405.141V135.416H561.973V133.653Z" fill="#3F3D56"/>
<path d="M561.973 145.989H405.141V147.751H561.973V145.989Z" fill="#3F3D56"/>
</g>
<defs>
<clipPath id="clip0">
<rect width="715.156" height="560" fill="white"/>
</clipPath>
</defs>
</svg>
