<svg width="688" height="564" viewBox="0 0 688 564" fill="none" xmlns="http://www.w3.org/2000/svg">
<g clip-path="url(#clip0)">
<g opacity="0.1">
<path opacity="0.1" d="M11.9117 84.3732C19.1213 96.9193 15.1278 113.205 7.29617 125.369C-0.535419 137.533 -11.6749 147.189 -20.3547 158.795C-37.6082 181.95 -42.0683 218.514 -20.3123 237.542C-15.6261 241.641 -9.83012 244.885 -6.97456 250.413C-3.0305 258.039 -5.94967 267.228 -8.92539 275.307L-9.17278 275.971C-20.4183 306.457 -3.85041 340.243 27.2003 349.806C44.3831 355.1 59.8908 363.681 71.3696 377.556C81.3994 389.685 87.1953 404.648 93.8112 418.926C105.771 444.718 121.208 469.379 142.539 488.159C163.871 506.94 191.706 519.387 220.12 518.362C285.021 516.022 332.809 447.68 397.646 444.082C402.318 443.821 407.294 443.997 411.203 446.57C416.716 450.203 418.405 457.335 420.723 463.534C433.001 496.351 469.968 511.478 503.068 522.97L565.269 544.585C599.055 556.318 634.537 568.228 669.878 562.793C705.219 557.357 739.726 528.335 738.193 492.598C736.934 463.244 712.606 437.41 715.793 408.197C717.999 388.01 733.118 371.053 735.648 350.902C738.284 329.93 726.82 309.793 713.623 293.282C675.653 245.755 621.539 214.428 568.725 184.212C531.525 162.922 494.134 141.548 454.085 126.252C355.357 88.6424 246.845 90.2611 141.67 79.998C123.583 78.231 104.675 76.1529 88.1001 68.1587C75.3773 62.0235 65.4323 47.8376 51.4725 44.8336C40.8349 42.5435 25.101 47.2722 15.8134 52.439C-1.11501 61.9246 3.55001 69.8198 11.9117 84.3732Z" fill="#2CC1BD"/>
</g>
<path d="M663.248 0H95.1824C92.5816 0.0111089 90.0085 0.534731 87.6102 1.54093C85.212 2.54713 83.0355 4.01618 81.2053 5.86407C79.3752 7.71197 77.9272 9.90247 76.9441 12.3104C75.9611 14.7182 75.4623 17.2963 75.4762 19.897V419.393C75.4623 421.994 75.9611 424.572 76.9441 426.98C77.9272 429.387 79.3752 431.578 81.2053 433.426C83.0355 435.274 85.212 436.743 87.6102 437.749C90.0085 438.755 92.5816 439.279 95.1824 439.29H663.248C665.849 439.279 668.422 438.755 670.82 437.749C673.219 436.743 675.395 435.274 677.225 433.426C679.055 431.578 680.503 429.387 681.486 426.98C682.469 424.572 682.968 421.994 682.954 419.393V19.897C682.968 17.2963 682.469 14.7182 681.486 12.3104C680.503 9.90247 679.055 7.71197 677.225 5.86407C675.395 4.01618 673.219 2.54713 670.82 1.54093C668.422 0.534731 665.849 0.0111089 663.248 0Z" fill="url(#paint0_linear)"/>
<path d="M680.389 42.3246V414.629C680.389 419.81 678.33 424.78 674.667 428.443C671.003 432.107 666.034 434.165 660.852 434.165H97.8047C92.6233 434.165 87.6541 432.107 83.9903 428.443C80.3265 424.78 78.2682 419.81 78.2682 414.629V42.3246H680.389Z" fill="#F6F7F9"/>
<path d="M225.351 234.22V434.158H97.8047C87.0186 434.158 78.2682 425.238 78.2682 414.24V234.22H225.351Z" fill="#DDE1EC"/>
<path d="M514.158 87.9075H269.018V94.799H514.158V87.9075Z" fill="#DDE1EC"/>
<path d="M416.864 136.933H269.018V143.824H416.864V136.933Z" fill="#DDE1EC"/>
<path d="M499.605 136.933H449.809V143.824H499.605V136.933Z" fill="#DDE1EC"/>
<g opacity="0.1">
<path opacity="0.1" d="M173.258 308.91H123.462V315.801H173.258V308.91Z" fill="#2CC1BD"/>
</g>
<path d="M499.605 201.282H449.809V208.173H499.605V201.282Z" fill="#DDE1EC"/>
<path d="M499.605 265.631H449.809V272.522H499.605V265.631Z" fill="#DDE1EC"/>
<path d="M499.605 158.385H449.809V165.276H499.605V158.385Z" fill="#DDE1EC"/>
<path d="M585.399 158.385H535.603V165.276H585.399V158.385Z" fill="#DDE1EC"/>
<path d="M499.605 179.83H449.809V186.721H499.605V179.83Z" fill="#DDE1EC"/>
<path d="M585.399 179.83H535.603V186.721H585.399V179.83Z" fill="#DDE1EC"/>
<path d="M585.399 219.666H535.603V226.558H585.399V219.666Z" fill="#DDE1EC"/>
<path d="M585.399 241.118H535.603V248.01H585.399V241.118Z" fill="#DDE1EC"/>
<path d="M585.399 287.083H535.603V293.974H585.399V287.083Z" fill="#DDE1EC"/>
<path d="M416.864 158.385H269.018V165.276H416.864V158.385Z" fill="#DDE1EC"/>
<path d="M416.864 179.83H269.018V186.721H416.864V179.83Z" fill="#DDE1EC"/>
<path d="M416.864 201.282H269.018V208.173H416.864V201.282Z" fill="#DDE1EC"/>
<path d="M416.864 222.734H269.018V229.625H416.864V222.734Z" fill="#DDE1EC"/>
<path d="M416.864 244.179H269.018V251.07H416.864V244.179Z" fill="#DDE1EC"/>
<path d="M416.864 265.631H269.018V272.522H416.864V265.631Z" fill="#DDE1EC"/>
<path d="M416.864 287.083H269.018V293.974H416.864V287.083Z" fill="#DDE1EC"/>
<path d="M225.351 41.9428H78.2682V238.051H225.351V41.9428Z" fill="#2CC1BD"/>
<path d="M680.389 22.4062C680.387 17.226 678.328 12.2586 674.664 8.59635C671 4.93406 666.032 2.87672 660.852 2.87672H97.8047C92.6233 2.87672 87.6541 4.93504 83.9903 8.59885C80.3265 12.2627 78.2682 17.2319 78.2682 22.4133V44.6287H680.389V22.4062Z" fill="#E8EAF1"/>
<path d="M102.017 31.2203C106.249 31.2203 109.679 27.7899 109.679 23.5584C109.679 19.3268 106.249 15.8964 102.017 15.8964C97.7858 15.8964 94.3555 19.3268 94.3555 23.5584C94.3555 27.7899 97.7858 31.2203 102.017 31.2203Z" fill="#FF5252"/>
<path d="M127.293 31.2203C131.525 31.2203 134.955 27.7899 134.955 23.5584C134.955 19.3268 131.525 15.8964 127.293 15.8964C123.062 15.8964 119.631 19.3268 119.631 23.5584C119.631 27.7899 123.062 31.2203 127.293 31.2203Z" fill="#FFFF00"/>
<path d="M152.576 31.2203C156.808 31.2203 160.238 27.7899 160.238 23.5584C160.238 19.3268 156.808 15.8964 152.576 15.8964C148.345 15.8964 144.914 19.3268 144.914 23.5584C144.914 27.7899 148.345 31.2203 152.576 31.2203Z" fill="#69F0AE"/>
<path d="M194.717 140C194.731 149.825 191.355 159.354 185.161 166.98C184.928 167.269 184.694 167.552 184.454 167.835C184.407 167.883 184.365 167.935 184.327 167.99C182.132 170.53 179.649 172.805 176.927 174.769L176.573 175.03C176.085 175.377 175.591 175.737 175.089 176.034L174.742 176.253L174 176.713C173.891 176.782 173.777 176.846 173.661 176.903C173.569 176.969 173.472 177.029 173.371 177.08C172.283 177.716 171.159 178.303 170.007 178.84C169.88 178.911 169.738 178.967 169.604 179.031C169.47 179.095 169.314 179.172 169.159 179.229C169.003 179.285 168.699 179.434 168.452 179.526C165.983 180.571 163.42 181.376 160.797 181.929C158.297 182.464 155.754 182.774 153.199 182.855H152.81H151.799C148.427 182.867 145.065 182.48 141.783 181.703L141.168 181.554C139.726 181.177 138.313 180.739 136.927 180.24C136.086 179.929 135.252 179.589 134.439 179.229C134.234 179.137 134.037 179.052 133.832 178.953L133.217 178.678L132.679 178.402L132.114 178.112L131.485 177.78L130.778 177.377L130.665 177.313C127.652 175.604 124.856 173.537 122.339 171.157C122.127 170.952 121.907 170.754 121.703 170.535C121.498 170.316 121.257 170.097 121.045 169.871C116.149 164.828 112.567 158.66 110.613 151.909C108.66 145.157 108.395 138.029 109.843 131.151C111.29 124.274 114.406 117.857 118.915 112.466C123.424 107.074 129.189 102.874 135.702 100.233C142.215 97.592 149.278 96.592 156.268 97.3208C163.259 98.0496 169.963 100.485 175.792 104.412C181.62 108.34 186.395 113.64 189.695 119.845C192.995 126.051 194.719 132.972 194.717 140Z" fill="white"/>
<path d="M175.944 157.183V157.24L175.993 157.289C175.979 157.247 175.958 157.219 175.944 157.183ZM132.715 178.388C132.644 177.398 132.573 176.508 132.51 175.744C132.46 175.207 132.411 174.727 132.368 174.331C132.364 174.312 132.364 174.293 132.368 174.274C132.368 174.175 132.368 174.083 132.368 173.991C131.687 175.031 131.127 176.146 130.7 177.314L130.813 177.377L131.52 177.78L132.149 178.112L132.715 178.402C132.715 178.718 132.738 179.048 132.785 179.392C132.75 179.052 132.736 178.727 132.715 178.409V178.388ZM142.122 137.979L142.158 138.042C142.16 138.059 142.16 138.076 142.158 138.092C142.152 138.059 142.14 138.028 142.122 138V137.979Z" fill="url(#paint1_linear)"/>
<path d="M154.428 130.762C154.428 130.762 151.877 142.227 158.888 148.284C165.9 154.342 142.327 159.084 138.171 154.016C134.015 148.948 141.055 146.362 141.055 146.362C141.055 146.362 144.589 143.492 141.055 134.897L154.428 130.762Z" fill="#E0A17E"/>
<path d="M160.79 181.943C158.29 182.478 155.747 182.788 153.191 182.869H152.803H151.792C148.421 182.876 145.062 182.484 141.783 181.703L141.168 181.554C139.726 181.177 138.313 180.739 136.927 180.24L136.221 169.637L139.288 154.957L141.091 146.305L141.6 143.888L142.115 144.595L142.229 144.75L142.37 144.934L148.025 152.462L153.813 146.227L154.11 145.902L155.701 144.185L156.301 143.542L156.584 145.726L157.602 153.578L159.489 168.061L160.79 181.943Z" fill="#F0F1F5"/>
<path opacity="0.1" d="M176.566 175.03C176.078 175.377 175.583 175.737 175.082 176.034L174.735 176.253L173.993 176.712C173.883 176.782 173.77 176.846 173.654 176.903C173.562 176.969 173.465 177.028 173.364 177.08C171.807 175.752 170.637 174.028 169.978 172.09C169.895 171.844 169.824 171.594 169.766 171.341C169.763 171.301 169.763 171.26 169.766 171.22L169.363 172.281L168.126 175.341C168.126 175.341 168.494 176.84 169.151 179.215C168.92 179.323 168.685 179.422 168.445 179.511C165.976 180.556 163.412 181.361 160.79 181.915C158.29 182.45 155.747 182.76 153.191 182.841H152.803C152.445 179.555 152.32 176.248 152.428 172.945L153.361 155.154L153.835 146.178L154.096 141.23C154.096 141.23 154.188 141.329 154.365 141.491C154.541 141.654 154.661 141.774 154.874 141.965C158.028 144.721 162.002 146.363 166.183 146.637C167.337 146.67 168.468 146.97 169.488 147.511C170.508 148.053 171.39 148.823 172.063 149.761C173.341 151.578 174.163 153.675 174.46 155.875L174.672 157.819L174.728 158.37L174.806 159.077L176.566 175.03Z" fill="black"/>
<path d="M176.919 174.776L176.566 175.037C176.078 175.384 175.583 175.744 175.082 176.041L174.735 176.26L173.993 176.72C172.331 175.383 171.065 173.619 170.332 171.616C170.298 171.534 170.269 171.449 170.247 171.362C170.169 171.115 170.099 170.853 170.042 170.599L169.752 171.355L169.356 172.38L168.452 174.74C168.452 174.74 168.869 176.437 169.604 179.052C169.455 179.123 169.314 179.193 169.158 179.25C169.003 179.307 168.699 179.455 168.452 179.547C165.983 180.592 163.42 181.397 160.797 181.95C158.297 182.485 155.754 182.795 153.198 182.876C152.786 179.377 152.637 175.852 152.753 172.33L153.658 155.091L154.138 145.902L154.372 141.569L154.414 140.672C154.452 140.714 154.492 140.754 154.534 140.792C157.79 143.918 162.046 145.793 166.55 146.086C167.689 146.119 168.804 146.41 169.814 146.938C170.823 147.466 171.698 148.216 172.375 149.132C173.687 150.965 174.532 153.09 174.834 155.324L175.209 158.809V158.858L175.287 159.565L176.919 174.776Z" fill="#293158"/>
<path opacity="0.1" d="M142.554 142.828V143.259L142.441 144.899L142.045 150.511C142.045 150.511 141.812 152.129 141.642 155.777C141.395 160.583 141.246 168.909 141.819 181.717L141.204 181.569C139.762 181.192 138.348 180.753 136.963 180.254C136.122 179.943 135.288 179.604 134.475 179.243C134.27 179.151 134.072 179.066 133.867 178.967C133.662 176.14 133.414 174.408 133.414 174.408C133.414 174.408 133.224 174.649 132.934 175.115C132.814 175.306 132.665 175.539 132.51 175.822L132.474 175.886C132.338 176.121 132.192 176.39 132.036 176.691C131.859 177.045 131.683 177.398 131.513 177.844L130.806 177.441L130.693 177.377C127.68 175.667 124.885 173.6 122.367 171.221C123.505 167.213 124.487 163.184 124.841 162.668C126.159 160.644 127.171 158.436 127.845 156.116C128.316 154.54 129.13 153.089 130.231 151.866C131.331 150.644 132.689 149.681 134.206 149.048C137.377 147.561 140.213 145.445 142.54 142.828H142.554Z" fill="black"/>
<path d="M142.561 142.63C139.825 144.946 136.777 146.867 133.506 148.334C131.989 148.967 130.631 149.93 129.531 151.153C128.431 152.375 127.616 153.826 127.145 155.402C126.471 157.722 125.459 159.93 124.141 161.954C123.795 162.47 122.805 166.506 121.667 170.521C121.872 170.733 122.091 170.938 122.303 171.143C124.821 173.523 127.617 175.59 130.629 177.299L130.743 177.363C131.155 176.313 131.676 175.308 132.298 174.366L132.333 174.31C132.58 173.942 132.736 173.744 132.736 173.744C132.736 173.744 132.799 174.211 132.891 175.052C132.983 175.893 133.103 177.172 133.216 178.657L133.831 178.932C134.029 179.031 134.227 179.116 134.439 179.208C135.252 179.568 136.086 179.915 136.927 180.219C138.299 180.723 139.712 181.161 141.168 181.533C140.589 168.853 140.716 160.498 140.949 155.572C141.133 151.599 141.38 149.839 141.38 149.839L142.278 144.68L142.532 143.224L142.653 142.517L142.561 142.63Z" fill="#293158"/>
<path opacity="0.1" d="M147.106 141.916C145.516 141.917 143.948 141.557 142.518 140.862C142.271 139.031 141.779 137.241 141.055 135.54L154.428 131.405C153.941 133.968 153.848 136.59 154.153 139.18C152.226 140.937 149.713 141.913 147.106 141.916Z" fill="black"/>
<path d="M147.106 141.28C152.91 141.28 157.616 136.574 157.616 130.769C157.616 124.964 152.91 120.259 147.106 120.259C141.301 120.259 136.595 124.964 136.595 130.769C136.595 136.574 141.301 141.28 147.106 141.28Z" fill="#E0A17E"/>
<g opacity="0.1">
<path opacity="0.1" d="M168.466 179.54C167.639 176.635 167.179 174.726 167.179 174.726L168.77 170.584C168.894 171.167 169.077 171.735 169.314 172.281L169.349 172.373L168.445 174.733C168.445 174.733 168.862 176.43 169.597 179.045C169.448 179.116 169.307 179.186 169.151 179.243C168.996 179.3 168.692 179.448 168.466 179.54Z" fill="black"/>
</g>
<path d="M180.87 159.749C180.87 159.749 179.916 150.511 180.87 146.051C181.825 141.591 169.724 146.687 172.268 152.737C173.63 156.091 175.338 159.294 177.365 162.293L180.87 159.749Z" fill="#E0A17E"/>
<path opacity="0.1" d="M184.32 167.99C182.125 170.53 179.641 172.805 176.919 174.769L176.566 175.03C176.078 175.377 175.583 175.737 175.082 176.034C173.942 174.682 172.925 173.232 172.042 171.701L171.95 171.538L174.502 158.158L174.771 158.434C174.884 158.54 175.032 158.681 175.209 158.823H175.244C176.566 159.954 179.358 161.65 180.701 157.706C180.928 157.016 181.091 156.306 181.189 155.586L181.45 156.561L181.606 157.133L184.433 167.799L184.32 167.99Z" fill="black"/>
<path d="M184.32 167.99C182.125 170.53 179.642 172.805 176.919 174.769L176.566 175.03C176.078 175.377 175.583 175.737 175.082 176.034L174.735 176.253C173.699 174.968 172.768 173.602 171.95 172.168L172.042 171.694L174.502 158.787C174.502 158.787 174.629 158.936 174.848 159.141L175.287 159.53C175.47 159.685 175.682 159.855 175.916 160.01C177.379 161.014 179.605 161.77 180.736 158.243C180.944 157.588 181.096 156.917 181.189 156.236L181.514 157.437L184.32 167.99Z" fill="#293158"/>
<path opacity="0.02" d="M184.32 167.99C182.125 170.53 179.642 172.805 176.919 174.769L176.566 175.03C176.078 175.377 175.583 175.737 175.082 176.034L174.735 176.253C173.699 174.968 172.768 173.602 171.95 172.168L172.042 171.694L174.502 158.787C174.502 158.787 174.629 158.936 174.848 159.141L175.287 159.53C175.47 159.685 175.682 159.855 175.916 160.01C177.379 161.014 179.605 161.77 180.736 158.243C180.944 157.588 181.096 156.917 181.189 156.236L181.514 157.437L184.32 167.99Z" fill="black"/>
<path opacity="0.1" d="M132.368 174.338L132.333 174.394C132.333 174.359 132.333 174.317 132.333 174.288C132.778 172.74 133.181 171.694 133.542 171.383C133.542 171.383 134.015 174.529 134.439 179.243C134.234 179.151 134.037 179.066 133.832 178.967L133.217 178.692C133.111 177.172 132.997 175.935 132.891 175.087C132.785 174.239 132.736 173.779 132.736 173.779C132.736 173.779 132.616 173.97 132.368 174.338Z" fill="black"/>
<path opacity="0.1" d="M147.233 127.871C147.782 127.57 148.415 127.456 149.035 127.546C149.303 127.659 149.544 127.828 149.742 128.041C150.569 128.825 151.389 129.737 152.506 129.977C153.195 130.082 153.899 130.051 154.577 129.886C155.766 129.748 156.92 129.396 157.984 128.846C160.351 127.433 161.108 124.372 161.256 121.623C161.306 120.697 161.115 119.502 160.203 119.304C159.044 119.057 158.196 120.817 157.022 120.626C156.666 120.54 156.345 120.344 156.103 120.068C155.305 119.269 154.76 118.244 153.983 117.438C152.74 116.277 151.13 115.587 149.431 115.488C147.746 115.396 146.057 115.556 144.42 115.961C143.517 116.11 142.645 116.409 141.84 116.845C141.441 117.063 141.095 117.366 140.827 117.732C140.558 118.098 140.373 118.519 140.285 118.965C140.207 119.58 140.37 120.216 140.249 120.824C140.131 121.235 139.929 121.617 139.656 121.946C139.384 122.275 139.047 122.546 138.666 122.74C137.959 123.178 137.125 123.446 136.433 123.984C135.332 124.839 134.568 126.055 134.277 127.419C133.994 128.775 133.956 130.17 134.164 131.539C134.454 133.919 135.117 136.237 136.129 138.41C136.463 139.168 136.893 139.881 137.408 140.53C138.164 141.355 139.032 142.069 139.988 142.651C140.161 142.808 140.367 142.924 140.591 142.991C140.814 143.059 141.05 143.075 141.281 143.039C141.414 142.992 141.536 142.92 141.642 142.827C142.547 142.071 142.631 140.707 142.349 139.555C142.066 138.403 141.585 137.307 141.529 136.134C141.493 135.804 141.557 135.472 141.713 135.18C141.901 134.943 142.114 134.728 142.349 134.536C142.655 134.184 142.894 133.78 143.055 133.342C143.596 132.26 143.966 131.102 144.151 129.907C144.253 128.923 144.038 127.932 143.536 127.079C144.022 127.536 144.623 127.851 145.274 127.99C145.926 128.13 146.603 128.089 147.233 127.871Z" fill="black"/>
<path d="M147.233 127.503C147.782 127.202 148.415 127.088 149.035 127.178C149.303 127.291 149.544 127.46 149.742 127.673C150.569 128.458 151.389 129.369 152.506 129.61C153.195 129.715 153.899 129.683 154.577 129.518C155.766 129.38 156.92 129.028 157.984 128.479C160.351 127.065 161.108 124.005 161.256 121.255C161.306 120.329 161.115 119.135 160.203 118.937C159.044 118.689 158.196 120.449 157.022 120.259C156.666 120.172 156.345 119.977 156.103 119.7C155.305 118.901 154.76 117.877 153.983 117.071C152.74 115.909 151.13 115.219 149.431 115.12C147.746 115.029 146.057 115.188 144.42 115.594C143.517 115.743 142.645 116.041 141.84 116.477C141.441 116.695 141.095 116.998 140.827 117.364C140.558 117.731 140.373 118.152 140.285 118.598C140.207 119.212 140.37 119.849 140.249 120.456C140.131 120.867 139.929 121.249 139.656 121.578C139.384 121.908 139.047 122.178 138.666 122.372C137.959 122.81 137.125 123.079 136.433 123.616C135.332 124.471 134.568 125.688 134.277 127.051C133.994 128.407 133.956 129.803 134.164 131.172C134.454 133.551 135.117 135.87 136.129 138.042C136.463 138.801 136.893 139.513 137.408 140.163C138.164 140.987 139.032 141.701 139.988 142.283C140.161 142.44 140.367 142.557 140.591 142.624C140.814 142.691 141.05 142.707 141.281 142.672C141.414 142.624 141.536 142.552 141.642 142.46C142.547 141.704 142.631 140.339 142.349 139.187C142.066 138.035 141.585 136.94 141.529 135.766C141.493 135.437 141.557 135.104 141.713 134.812C141.901 134.576 142.114 134.36 142.349 134.169C142.655 133.817 142.894 133.412 143.055 132.974C143.596 131.893 143.966 130.734 144.151 129.539C144.253 128.555 144.038 127.564 143.536 126.712C144.022 127.168 144.623 127.483 145.274 127.623C145.926 127.762 146.603 127.721 147.233 127.503Z" fill="#463E3B"/>
<path d="M89.4006 400.309C99.234 400.309 107.205 397.382 107.205 393.771C107.205 390.16 99.234 387.233 89.4006 387.233C79.5673 387.233 71.5958 390.16 71.5958 393.771C71.5958 397.382 79.5673 400.309 89.4006 400.309Z" fill="#CD9494"/>
<path opacity="0.05" d="M89.4007 396.379C94.4169 396.379 98.4833 394.885 98.4833 393.043C98.4833 391.2 94.4169 389.706 89.4007 389.706C84.3844 389.706 80.318 391.2 80.318 393.043C80.318 394.885 84.3844 396.379 89.4007 396.379Z" fill="black"/>
<path d="M71.5886 392.336C71.5886 392.336 91.21 403.235 107.198 393.792C107.198 393.792 105.021 431.586 94.1151 435.219H79.5899C79.5899 435.219 67.2346 409.752 71.5886 392.336Z" fill="#FF7361"/>
<path d="M104.774 323.067C109.771 341.324 88.4676 393.332 88.4676 393.332C88.4676 393.332 43.6622 359.405 38.665 341.155C36.2664 332.388 37.4486 323.028 41.9515 315.133C46.4544 307.238 53.9091 301.455 62.6757 299.056C71.4423 296.658 80.8027 297.84 88.6977 302.343C96.5926 306.846 102.375 314.3 104.774 323.067Z" fill="#2CC1BD"/>
<path opacity="0.1" d="M104.774 323.067C109.771 341.324 88.4676 393.332 88.4676 393.332C88.4676 393.332 43.6622 359.405 38.665 341.155C36.2664 332.388 37.4486 323.028 41.9515 315.133C46.4544 307.238 53.9091 301.455 62.6757 299.056C71.4423 296.658 80.8027 297.84 88.6977 302.343C96.5926 306.846 102.375 314.3 104.774 323.067Z" fill="black"/>
<path d="M62.8594 299.155C62.8594 299.155 90.7506 341.261 88.6514 393.424" stroke="#535461" stroke-width="0.706822" stroke-miterlimit="10"/>
<path d="M111.892 356.429C111.892 356.429 86.5733 342.667 89.8035 393.46C89.8035 393.46 110.902 392.703 118.387 375.492C119.85 372.145 120.035 368.378 118.907 364.904C117.779 361.43 115.416 358.49 112.266 356.641L111.892 356.429Z" fill="#2CC1BD"/>
<path d="M112.309 356.514C112.309 356.514 109.043 382.878 89.8035 393.46" stroke="#535461" stroke-width="0.706822" stroke-miterlimit="10"/>
<path opacity="0.05" d="M104.823 395C104.117 403.694 101.07 430.695 91.9451 433.741H78.9184C79.3354 434.667 79.5899 435.197 79.5899 435.197H94.1292C105.021 431.557 107.205 393.749 107.205 393.749C106.433 394.206 105.638 394.624 104.823 395Z" fill="black"/>
<path d="M416.864 334.192H269.018V419.994H416.864V334.192Z" fill="#DDE1EC"/>
<path d="M659.686 164.838C659.704 164.56 659.704 164.282 659.686 164.004C659.431 160.555 656.152 158.06 652.9 156.731C649.649 155.402 646.016 154.752 643.139 152.737C638.276 149.33 636.778 142.962 636.339 137.138C636.205 135.328 636.149 133.519 636.141 131.702C636.134 129.886 636.255 127.878 636.424 125.97C636.707 122.803 637.173 119.524 637.131 116.35C637.296 113.322 636.713 110.3 635.435 107.55C632.551 101.853 626.076 98.941 620.082 96.46C617.778 95.5058 615.417 94.5375 612.915 94.4315C610.272 94.3184 607.699 95.1736 605.197 96.0218C601.224 97.3648 597.196 99.1106 593.089 100.022C590.785 100.531 588.261 100.15 586.021 100.963C581.624 102.574 580.684 106.525 580.755 110.858C580.755 111.134 580.755 111.402 580.755 111.678C580.317 111.275 579.864 110.893 579.405 110.526L579.136 110.314C578.665 109.932 578.163 109.572 577.631 109.232L577.376 109.07C576.296 108.37 575.164 107.753 573.991 107.225L573.814 107.147C573.225 106.888 572.626 106.652 572.019 106.44L571.905 106.398C570.647 105.959 569.357 105.619 568.046 105.38C563.916 104.615 559.662 104.873 555.655 106.132C551.648 107.392 548.01 109.614 545.06 112.604L540.204 117.552C518.13 112.604 517.141 131.78 517.141 131.78L517.303 131.745L517.247 131.879C517.75 134.305 518.384 136.703 519.148 139.06L348.684 313.172L331.452 366.579L341.128 363.13L385.333 347.339L543.618 185.647C555.465 194.065 567.778 205.346 567.778 205.346C567.778 205.346 560.144 209.382 562.971 227.872C566.428 250.491 561.232 282.686 561.232 282.686V303.509L562.208 303.241C562.088 303.948 561.96 304.654 561.84 305.467C560.23 315.93 560.026 326.56 561.232 337.076C563.848 359.172 574.295 389.339 574.295 389.339C574.295 389.339 578.21 399.941 579.087 408.458C579.225 410.14 579.601 411.794 580.204 413.371C582.169 418.043 583.206 423.053 583.257 428.122C583.257 437.367 584.466 451.242 589.972 465.4C594.389 476.766 596.022 483.424 596.51 487.311C593.379 491.453 589.286 495.97 586.056 496.422C579.963 497.271 568.202 498.119 576.04 508.318C576.314 508.668 576.619 508.993 576.952 509.287C571.001 510.248 564.456 512.368 570.817 520.638C578.656 530.838 624.811 526.165 624.811 526.165C624.811 526.165 625.108 520.511 624.811 514.277C628.048 514.051 630.049 513.846 630.049 513.846C630.049 513.846 631.356 489.199 625.695 486.223C624.648 486.337 623.622 486.589 622.641 486.972C622.033 483.565 621.567 479.331 621.277 476.193L623.518 476.023V439.057C623.518 439.057 620.902 416.113 611.325 405.914C610.104 404.64 609.052 403.215 608.194 401.673C608.264 398.725 608.271 394.605 608.236 389.848C608.617 389.205 609.07 388.607 609.586 388.067C609.586 388.067 614.81 381.705 632.664 341.324C643.196 317.512 640.849 303.764 637.152 296.484C636.445 293.897 634.608 286.51 632.204 272.911C629.158 255.488 632.643 238.489 632.643 238.489C632.643 238.489 643.952 209.17 649.189 197.274C650.402 194.409 650.907 191.293 650.66 188.191C652.024 187.195 652.681 185.534 653.268 183.95L658.633 169.637C659.212 168.089 659.806 166.478 659.679 164.831L659.686 164.838ZM586.826 139.067C587.409 139.977 588.059 140.841 588.77 141.654C588.77 141.654 587.972 140.82 586.65 139.477C586.713 139.343 586.77 139.202 586.826 139.067ZM560.448 168.45L575.213 153.366C580.317 158.031 585.78 162.795 590.346 166.718C589.911 168.728 589.335 170.705 588.622 172.634C586.643 173.617 584.027 173.935 580.847 172.203C575.807 169.482 566.505 168.676 560.448 168.45Z" fill="url(#paint2_linear)"/>
<path d="M548.566 112.788C548.566 112.788 537.618 119.107 540.989 127.984C540.989 127.984 552.362 131.356 556.992 139.781C561.621 148.206 597.429 178.529 597.429 178.529L623.539 165.446C623.539 165.446 614.456 153.317 585.724 144.849C585.724 144.849 568.76 126.691 562.887 123.326C557.013 119.962 548.566 112.788 548.566 112.788Z" fill="#FEBDD5"/>
<path opacity="0.05" d="M548.566 112.788C548.566 112.788 537.618 119.107 540.989 127.984C540.989 127.984 552.362 131.356 556.992 139.781C561.621 148.206 597.429 178.529 597.429 178.529L623.539 165.446C623.539 165.446 614.456 153.317 585.724 144.849C585.724 144.849 568.76 126.691 562.887 123.326C557.013 119.962 548.566 112.788 548.566 112.788Z" fill="black"/>
<path d="M353.483 314.847L543.463 115.968C547.953 111.274 554.123 108.555 560.616 108.406C567.11 108.258 573.398 110.693 578.097 115.177C582.791 119.667 585.511 125.836 585.66 132.33C585.808 138.824 583.373 145.111 578.889 149.811L388.938 348.718L336.817 367.802L353.483 314.847Z" fill="#2CC1BD"/>
<path opacity="0.1" d="M567.742 111.65C572.436 116.14 575.156 122.309 575.305 128.803C575.453 135.297 573.018 141.584 568.534 146.284L378.561 345.162L339.432 359.476L336.788 367.788L388.909 348.704L578.91 149.896C583.394 145.196 585.829 138.909 585.681 132.415C585.532 125.921 582.812 119.751 578.119 115.261C574.205 111.511 569.154 109.171 563.763 108.61C565.189 109.485 566.523 110.504 567.742 111.65Z" fill="white"/>
<path d="M353.483 314.854L388.938 348.718L346.175 364.367L336.817 367.788L342.747 348.965L353.483 314.854Z" fill="#EFC8C4"/>
<path d="M342.747 348.958C344.044 349.21 345.282 349.707 346.394 350.421C347.68 351.347 348.613 352.952 348.26 354.493C347.912 355.452 347.416 356.351 346.79 357.157C346.151 358.235 345.764 359.443 345.657 360.692C345.551 361.94 345.728 363.196 346.175 364.367L336.788 367.788L342.747 348.958Z" fill="#727A9C"/>
<path d="M616.803 472.065C616.803 472.065 618.068 490.598 620.175 492.704C622.281 494.811 601.218 496.076 601.218 496.076L604.165 472.044L616.803 472.065Z" fill="#FFB9B9"/>
<path opacity="0.05" d="M616.803 472.065C616.803 472.065 618.068 490.598 620.175 492.704C622.281 494.811 601.218 496.076 601.218 496.076L604.165 472.044L616.803 472.065Z" fill="black"/>
<path d="M621.433 486.385C621.433 486.385 618.485 486.385 607.954 491.863C607.954 491.863 600.794 490.598 597.846 480.491C597.846 480.491 589.004 495.652 583.102 496.493C577.2 497.334 565.834 498.175 573.411 508.29C580.988 518.404 625.638 513.768 625.638 513.768C625.638 513.768 626.911 489.333 621.433 486.385Z" fill="#CBCDDA"/>
<path opacity="0.05" d="M621.433 486.385C621.433 486.385 618.485 486.385 607.954 491.863C607.954 491.863 600.794 490.598 597.846 480.491C597.846 480.491 589.004 495.652 583.102 496.493C577.2 497.334 565.834 498.175 573.411 508.29C580.988 518.404 625.638 513.768 625.638 513.768C625.638 513.768 626.911 489.333 621.433 486.385Z" fill="black"/>
<path d="M615.114 500.706L612.166 508.707L592.792 503.229L593.895 495.284L594.163 493.369L594.87 488.068C594.87 488.068 611.297 483.827 611.297 485.947C611.519 487.684 611.881 489.4 612.378 491.079C613.085 493.666 613.898 496.62 614.499 498.564C614.866 499.864 615.114 500.706 615.114 500.706Z" fill="#FFB9B9"/>
<path d="M604.547 390.859C603.218 393.106 601.719 397.319 604.511 402.578C605.338 404.1 606.354 405.511 607.537 406.776C616.803 416.884 619.333 439.629 619.333 439.629V476.271L613.014 476.759L602.907 477.536L587.71 415.209C587.71 415.209 578.868 369.717 583.081 361.716C587.293 353.715 591.082 303.594 591.082 303.594L594.58 299.975L602.879 291.38H626.911C628.832 292.758 630.427 294.542 631.583 296.604C635.612 303.276 639.23 317.151 628.176 342.766C610.908 382.78 605.854 389.099 605.854 389.099C605.353 389.634 604.915 390.224 604.547 390.859Z" fill="#4C4C78"/>
<path opacity="0.05" d="M604.547 390.859C603.218 393.106 601.719 397.319 604.511 402.578C605.338 404.1 606.354 405.511 607.537 406.776C616.803 416.884 619.333 439.629 619.333 439.629V476.271L613.014 476.759L602.907 477.536L587.71 415.209C587.71 415.209 578.868 369.717 583.081 361.716C587.293 353.715 591.082 303.594 591.082 303.594L594.58 299.975L602.879 291.38H626.911C628.832 292.758 630.427 294.542 631.583 296.604C635.612 303.276 639.23 317.151 628.176 342.766C610.908 382.78 605.854 389.099 605.854 389.099C605.353 389.634 604.915 390.224 604.547 390.859Z" fill="black"/>
<path opacity="0.1" d="M612.407 491.093L594.164 493.369L594.87 488.068C594.87 488.068 611.297 483.827 611.297 485.947C611.528 487.689 611.899 489.41 612.407 491.093Z" fill="black"/>
<path d="M603.324 336.864C603.324 336.864 604.37 370.021 604.547 390.858C604.582 395.573 604.547 399.658 604.511 402.578C604.536 404.125 604.423 405.672 604.172 407.2C602.907 410.989 605.437 419.414 605.437 419.414C615.969 447.213 613.022 471.641 613.022 471.641V490.174L592.792 492.704C592.792 492.704 596.164 490.174 586.897 465.746C581.575 451.709 580.423 437.961 580.402 428.794C580.353 423.778 579.35 418.817 577.447 414.176C576.874 412.607 576.522 410.966 576.401 409.299C575.56 400.874 571.771 390.342 571.771 390.342C571.771 390.342 561.664 360.437 559.133 338.532C557.966 328.107 558.163 317.573 559.72 307.199C560.093 304.562 560.6 301.946 561.24 299.36C561.24 299.36 602.412 273.448 617.962 291.359C619.467 293.109 620.662 295.102 621.496 297.254C622.35 299.378 623.015 301.573 623.483 303.813C628.261 327.605 603.324 336.864 603.324 336.864Z" fill="#4C4C78"/>
<path d="M602.059 152.384C613.922 152.384 623.539 142.767 623.539 130.903C623.539 119.04 613.922 109.423 602.059 109.423C590.195 109.423 580.578 119.04 580.578 130.903C580.578 142.767 590.195 152.384 602.059 152.384Z" fill="#FFB9B9"/>
<path d="M590.269 144.376C590.269 144.376 599.111 169.227 590.269 182.282C581.426 195.337 618.485 191.125 618.485 191.125L632.805 173.857C632.805 173.857 615.955 173.857 615.135 144.376C614.315 114.894 590.269 144.376 590.269 144.376Z" fill="#FFB9B9"/>
<path opacity="0.1" d="M632.805 301.481C629.751 302.538 626.61 303.326 623.419 303.834C618.174 304.64 611.989 304.676 608.37 301.481C606.25 299.586 600.942 299.36 594.595 299.961C581.229 301.24 563.134 306.231 559.67 307.213C560.043 304.576 560.55 301.96 561.19 299.374C561.19 299.374 602.362 273.462 617.913 291.373H626.896C628.817 292.751 630.412 294.534 631.568 296.597C632.353 299.947 632.805 301.481 632.805 301.481Z" fill="black"/>
<path opacity="0.1" d="M615.114 500.706L612.166 508.707L592.792 503.229L593.895 495.284C597.224 502.649 602.9 503.646 602.9 503.646C609.021 500.465 612.583 499.129 614.492 498.571C614.866 499.864 615.114 500.706 615.114 500.706Z" fill="black"/>
<path d="M616.379 498.599C616.379 498.599 613.432 498.599 602.9 504.077C602.9 504.077 595.74 502.812 592.792 492.705C592.792 492.705 583.95 507.866 578.048 508.707C572.146 509.548 560.78 510.375 568.365 520.504C575.949 530.633 620.592 525.982 620.592 525.982C620.592 525.982 621.857 501.547 616.379 498.599Z" fill="#CBCDDA"/>
<path d="M516.455 135.017C516.455 135.017 517.41 116.011 538.763 120.916L533.285 131.186L516.455 135.017Z" fill="#FFB9B9"/>
<path d="M615.983 178.918C615.983 178.918 595.344 175.546 589.866 171.333C589.866 171.333 585.625 179.335 578.069 175.122C570.513 170.909 552.8 171.333 552.8 171.333C552.8 171.333 538.056 163.332 535.13 145.216C535.13 145.216 532.182 134.268 533.009 131.32C533.009 131.32 522.061 119.948 516.583 135.109C518.703 145.64 520.371 144.799 519.954 153.218L526.69 171.751C526.69 171.751 527.114 178.069 539.328 186.495C551.542 194.92 565.445 207.975 565.445 207.975C565.445 207.975 558.073 211.976 560.816 230.297C564.159 252.689 559.133 284.63 559.133 284.63V305.269C559.133 305.269 601.253 293.055 608.413 299.374C615.573 305.693 632.841 299.374 632.841 299.374C632.841 299.374 630.72 292.214 627.787 274.947C624.854 257.679 628.211 240.828 628.211 240.828C628.211 240.828 639.16 211.764 644.214 199.974C649.267 188.184 640.425 172.175 631.576 166.28C622.726 160.385 619.439 163.926 619.439 163.926C619.439 163.926 634.912 175.129 615.983 178.918Z" fill="#FEBDD5"/>
<path opacity="0.1" d="M578.825 125.645C578.819 126.521 578.967 127.392 579.264 128.218C579.755 129.156 580.425 129.989 581.236 130.67C584.388 133.752 587.159 137.413 588.269 141.683C589.018 144.573 588.975 147.599 588.933 150.588C588.749 162.682 588.226 175.737 580.776 185.223C578.034 188.722 574.5 191.499 571.185 194.461C570.719 194.809 570.369 195.289 570.181 195.839C570.089 196.414 570.199 197.004 570.492 197.507C572.033 200.709 575.277 202.674 578.352 204.455C579.766 205.268 581.236 206.109 582.861 206.159C586.692 206.286 589.223 202.236 592.707 200.646C597.782 198.327 603.472 201.55 608.512 203.954C612.159 205.69 615.984 207.024 619.92 207.933C625.313 209.177 631.406 209.481 635.944 206.321C638.567 204.473 640.359 201.668 640.934 198.511C641.301 196.454 641.245 194.065 642.8 192.673C643.606 191.966 644.701 191.655 645.564 191.019C646.914 190.029 647.55 188.368 648.122 186.778L653.31 172.592C653.979 171.093 654.323 169.469 654.321 167.828C654.074 164.414 650.921 161.933 647.762 160.618C644.602 159.304 641.104 158.66 638.319 156.66C633.618 153.281 632.162 146.97 631.738 141.195C631.448 137.229 631.477 133.246 631.823 129.285C632.339 123.411 633.484 117.149 630.869 111.862C628.077 106.207 621.814 103.33 616.025 100.871C613.799 99.9235 611.509 98.9693 609.092 98.8633C606.533 98.7502 604.045 99.5701 601.628 100.439C597.782 101.775 593.852 103.5 589.915 104.405C587.689 104.914 585.243 104.532 583.095 105.338C575.199 108.306 578.825 119.29 578.825 125.645Z" fill="black"/>
<path d="M578.825 124.804C578.819 125.68 578.967 126.551 579.264 127.376C579.755 128.315 580.424 129.148 581.236 129.829C584.388 132.911 587.159 136.572 588.268 140.841C589.018 143.732 588.975 146.757 588.933 149.747C588.749 161.841 588.226 174.896 580.776 184.382C578.034 187.88 574.5 190.658 571.185 193.62C570.721 193.959 570.369 194.429 570.174 194.97C570.082 195.545 570.192 196.134 570.485 196.638C572.026 199.84 575.27 201.805 578.345 203.586C579.758 204.399 581.229 205.24 582.854 205.289C586.685 205.417 589.216 201.367 592.7 199.776C597.775 197.458 603.465 200.681 608.505 203.084C612.152 204.82 615.977 206.155 619.913 207.064C625.306 208.308 631.399 208.611 635.937 205.452C638.56 203.604 640.352 200.799 640.927 197.642C641.294 195.585 641.238 193.196 642.793 191.803C643.598 191.096 644.694 190.785 645.556 190.149C646.906 189.16 647.543 187.499 648.115 185.908L653.303 171.722C653.972 170.223 654.316 168.6 654.314 166.958C654.067 163.545 650.914 161.064 647.755 159.749C644.595 158.434 641.096 157.791 638.311 155.791C633.611 152.412 632.155 146.1 631.731 140.325C631.441 136.36 631.47 132.377 631.816 128.415C632.332 122.542 633.477 116.279 630.862 110.992C628.07 105.338 621.807 102.461 616.018 100.001C613.792 99.0541 611.502 98.0999 609.084 97.9938C606.526 97.8807 604.038 98.7007 601.62 99.57C597.775 100.906 593.845 102.631 589.908 103.535C587.682 104.044 585.236 103.663 583.087 104.468C575.199 107.486 578.825 118.449 578.825 124.804Z" fill="#B96B6B"/>
<path opacity="0.05" d="M561.847 239.754C561.847 239.754 565.205 238.955 582.056 236.411C598.906 233.866 628.388 239.782 628.388 239.782" fill="black"/>
</g>
<defs>
<linearGradient id="paint0_linear" x1="379.219" y1="439.29" x2="379.219" y2="0" gradientUnits="userSpaceOnUse">
<stop stop-color="#808080" stop-opacity="0.25"/>
<stop offset="0.54" stop-color="#808080" stop-opacity="0.12"/>
<stop offset="1" stop-color="#808080" stop-opacity="0.1"/>
</linearGradient>
<linearGradient id="paint1_linear" x1="-14877.5" y1="12758.1" x2="-14877.5" y2="10330.5" gradientUnits="userSpaceOnUse">
<stop stop-color="#808080" stop-opacity="0.25"/>
<stop offset="0.54" stop-color="#808080" stop-opacity="0.12"/>
<stop offset="1" stop-color="#808080" stop-opacity="0.1"/>
</linearGradient>
<linearGradient id="paint2_linear" x1="264128" y1="344981" x2="264128" y2="79948.3" gradientUnits="userSpaceOnUse">
<stop stop-color="#808080" stop-opacity="0.25"/>
<stop offset="0.54" stop-color="#808080" stop-opacity="0.12"/>
<stop offset="1" stop-color="#808080" stop-opacity="0.1"/>
</linearGradient>
<clipPath id="clip0">
<rect width="723" height="564" fill="white" transform="translate(-35)"/>
</clipPath>
</defs>
</svg>
